<svg width="400" height="464" viewBox="0 0 400 464" fill="none" xmlns="http://www.w3.org/2000/svg">
<path fill-rule="evenodd" clip-rule="evenodd" d="M300.427 156.984L298.719 157.106C297.987 154.911 296.034 153.081 296.4 151.373C294.936 151.739 295.546 150.885 294.082 154.057C294.082 154.179 293.716 155.155 293.716 155.155C293.716 155.886 295.058 158.204 295.668 159.668L298.231 158.692C298.841 158.448 298.597 158.57 299.207 158.204C299.329 158.082 299.451 158.082 299.573 157.96L300.427 156.984Z" fill="#8C6A57"/>
<path fill-rule="evenodd" clip-rule="evenodd" d="M204.881 276.156C206.467 276.278 207.566 275.79 208.908 275.424C209.396 275.302 210.128 275.058 210.738 274.692C212.203 273.594 211.47 274.814 211.592 273.228L204.759 273.838C196.095 273.716 200.122 270.179 196.705 273.35C198.17 273.106 196.339 272.74 197.193 273.594L197.559 274.082C199.512 275.912 202.074 275.912 204.881 276.156Z" fill="#00398C"/>
<path fill-rule="evenodd" clip-rule="evenodd" d="M178.035 364.589C177.425 367.882 177.059 368.004 180.842 371.42L181.574 371.907L183.405 371.664C182.55 369.956 181.33 369.468 180.842 367.882C179.988 364.711 182.184 364.101 179.134 362.515C178.89 365.443 178.646 363.857 178.035 364.589Z" fill="#0045AD"/>
<path fill-rule="evenodd" clip-rule="evenodd" d="M179.744 352.147C180.476 355.075 179.134 354.831 181.086 356.172C181.94 354.831 181.696 353.489 181.818 351.903C182.062 348.854 182.55 348.854 179.744 348.366V352.147Z" fill="#0045AD"/>
<path fill-rule="evenodd" clip-rule="evenodd" d="M95.7902 95.8738C98.2307 95.5079 100.183 94.2881 102.99 95.02L102.868 93.0684C102.746 92.8244 99.695 90.3849 97.7426 91.4827L96.1563 92.9464C94.814 90.6288 93.9598 91.6046 94.3259 88.5552C93.8378 89.1651 92.6176 94.0442 92.6176 95.5079C92.7396 95.6299 92.9836 95.5079 93.1057 95.7519C93.8378 96.9716 92.2515 96.4837 95.7902 95.8738Z" fill="#ACAE32"/>
<path fill-rule="evenodd" clip-rule="evenodd" d="M111.043 82.2124C114.826 80.6267 117.511 78.6751 123.002 78.6751C122.88 78.5531 122.758 78.1872 122.758 78.3092C122.148 79.5289 123.002 77.6993 121.171 77.0894C120.195 76.7235 119.585 76.9674 118.243 76.7235C119.951 75.0158 119.097 77.3334 119.707 74.4059C115.802 74.7718 116.534 76.1136 117.267 78.7971C113.728 78.3092 111.409 78.1872 111.043 82.2124Z" fill="#ACAE32"/>
<path fill-rule="evenodd" clip-rule="evenodd" d="M102.868 93.0684C104.82 91.8486 106.04 87.4574 107.138 85.8717C104.576 86.1157 102.99 86.7256 102.257 88.4332C101.525 90.3849 102.868 91.6046 102.868 93.0684Z" fill="#ACAE32"/>
<path fill-rule="evenodd" clip-rule="evenodd" d="M107.871 85.5058C109.335 83.6761 109.945 84.652 110.799 82.5783H109.823C109.701 82.5783 109.579 82.4564 109.579 82.4564L106.65 81.6025C105.796 83.0663 106.406 83.3102 106.406 85.2618L107.871 85.5058Z" fill="#ACAE32"/>
<path fill-rule="evenodd" clip-rule="evenodd" d="M295.302 169.182C295.912 168.45 297.498 167.108 298.353 166.132C299.085 165.401 301.037 164.059 302.379 163.571C306.284 162.229 308.847 164.547 309.701 167.474C309.823 164.547 308.725 162.717 306.406 162.107C303.356 161.253 301.403 162.717 299.329 163.693C302.379 159.912 308.115 156.13 312.874 160.156L316.412 163.937C315.192 159.058 310.189 154.057 304.21 157.472C301.647 158.936 296.278 165.401 295.302 169.182Z" fill="#271606"/>
<path fill-rule="evenodd" clip-rule="evenodd" d="M196.217 204.311C200.732 206.507 201.464 207.117 207.444 208.458C216.229 210.532 225.381 209.556 233.435 204.799C236.73 202.848 240.635 199.798 242.221 197.603L232.825 203.823C218.426 213.582 199.512 204.433 196.217 204.311Z" fill="#271606"/>
<path fill-rule="evenodd" clip-rule="evenodd" d="M212.08 131.125C211.958 133.565 209.762 136.736 208.42 138.322C206.833 140.029 205.125 142.103 203.295 142.347C195.851 143.323 197.193 142.957 190.36 141.493C193.044 143.811 197.925 144.055 201.83 143.445C201.83 143.567 201.83 143.567 201.83 143.689C201.952 144.665 202.562 144.177 204.271 143.445C205.003 142.225 206.711 141.371 207.81 140.395C208.786 139.542 210.128 137.956 211.104 136.614C212.813 134.297 214.887 130.515 215.375 126.49C215.619 123.075 215.253 118.927 213.545 117.22C213.911 121.489 215.009 128.32 212.08 131.125Z" fill="#271606"/>
<path fill-rule="evenodd" clip-rule="evenodd" d="M189.506 124.416C193.411 122.099 197.315 120.147 203.173 121.367C207.2 122.221 211.47 125.392 212.081 128.076C210.372 121.245 201.952 118.318 194.753 120.757C192.557 121.611 190.604 122.587 189.506 124.416Z" fill="#271606"/>
<path fill-rule="evenodd" clip-rule="evenodd" d="M252.593 179.794C255.278 180.648 257.718 184.063 259.182 186.991C257.596 182.477 258.206 181.258 253.203 178.696C252.227 178.208 252.593 178.452 252.105 178.086L249.786 178.574L252.593 179.794Z" fill="#271606"/>
<path fill-rule="evenodd" clip-rule="evenodd" d="M221.598 161.131C222.209 161.863 223.185 160.522 223.917 159.79C224.161 157.106 223.917 154.789 221.476 154.301C222.941 156.252 223.185 156.74 222.819 159.79L221.598 161.131Z" fill="#271606"/>
<path fill-rule="evenodd" clip-rule="evenodd" d="M318.243 56.4753C318.121 56.4753 317.511 55.4995 317.511 55.4995C316.046 54.1577 317.267 55.0116 315.68 54.2797C316.413 61.1104 316.535 65.6236 316.657 72.6982L318.975 74.4059C320.073 72.4543 321.171 67.8192 321.293 65.3796C321.416 69.5268 319.219 77.6993 322.026 76.9674C324.222 76.3575 320.317 79.285 323.246 75.6257C323.124 77.3334 323.124 78.3092 323.734 79.407C324.344 78.1872 324.344 78.0652 324.466 76.4795L324.71 73.4301C325.198 71.7224 324.832 72.6982 325.198 72.0883V80.2608C325.686 78.3092 326.052 78.3092 326.297 75.8696C326.419 74.5279 326.419 74.162 326.419 74.162C326.419 74.162 326.419 74.2839 326.663 74.6499C328.127 76.2356 325.564 75.7477 327.273 75.0158C330.323 65.0137 320.683 63.306 319.219 55.7434C318.975 54.1577 318.731 53.6698 318.365 52.2061L318.243 56.4753Z" fill="#675758"/>
<path fill-rule="evenodd" clip-rule="evenodd" d="M332.52 116.488L334.472 125.392C335.326 127.954 334.716 126.002 336.547 127.344C339.231 129.295 338.499 136.126 339.109 139.786C339.353 135.516 338.865 133.809 338.621 129.905C338.377 126.49 339.231 129.661 338.865 126.612C338.743 125.148 338.133 123.685 337.889 122.099C340.573 128.32 338.865 128.442 342.282 130.149C342.892 128.808 342.526 127.466 341.916 125.758C341.306 124.294 340.94 123.075 340.451 121.611C339.597 119.293 337.401 115.39 337.523 113.317L342.648 124.172C343.014 120.269 341.916 115.512 339.963 113.195C339.841 113.073 339.841 112.707 339.719 112.829C339.719 112.951 339.597 112.585 339.475 112.463C338.499 111.243 336.547 109.657 335.082 109.291L332.276 109.535C329.591 107.828 331.544 108.559 329.835 107.828C330.445 110.023 330.933 109.169 330.445 111.243C330.079 112.585 329.591 111.243 329.835 114.048L328.127 112.463C327.029 109.657 328.127 110.633 325.808 109.047L326.663 113.073C326.907 114.658 326.785 113.682 325.93 114.902L325.32 115.634C326.297 118.44 326.541 116.488 327.029 119.415C327.395 121.489 327.029 121.611 328.249 123.807C329.713 125.88 329.835 123.319 330.323 127.954C330.567 129.539 330.933 132.345 330.567 133.565L331.055 125.636C331.178 125.758 331.544 125.514 331.788 125.392C333.252 125.148 331.178 125.88 333.13 125.148L332.032 118.44C331.91 115.146 331.91 117.098 332.764 115.878L332.52 116.488Z" fill="#675758"/>
<path fill-rule="evenodd" clip-rule="evenodd" d="M295.79 62.0862L301.769 64.4038C303.844 60.5005 306.04 54.2797 307.261 49.7666C307.993 47.0831 308.115 46.5952 305.918 45.4974C304.698 47.327 303.722 55.3775 299.695 58.3049C300.671 54.6456 302.258 51.9621 303.478 46.5952C304.088 44.0336 304.576 43.7897 302.38 42.9359C301.159 45.8633 300.793 50.0105 299.817 52.938C298.597 56.1094 296.278 59.6467 295.79 62.0862Z" fill="#675758"/>
<path fill-rule="evenodd" clip-rule="evenodd" d="M310.433 57.2072L310.067 60.6225C310.921 60.9884 310.433 61.3544 311.043 60.3786C311.653 59.4027 311.165 60.1346 311.043 60.1346C311.897 63.428 312.996 60.7445 313.24 66.9653L314.704 65.3796V67.9411L315.924 67.0873C315.68 63.5499 315.802 59.7687 315.558 55.9874C315.314 52.2061 314.094 51.8402 310.921 49.6446L310.433 57.2072Z" fill="#675758"/>
<path fill-rule="evenodd" clip-rule="evenodd" d="M204.515 44.3996C203.661 42.5699 203.051 41.9601 203.051 39.5205C205.613 37.081 205.247 38.7887 207.932 37.5689C205.613 37.203 202.196 36.3491 201.586 38.9106C201.098 40.9842 202.685 43.3018 204.515 44.3996Z" fill="#675758"/>
<path fill-rule="evenodd" clip-rule="evenodd" d="M244.173 153.081C241.977 153.081 243.319 153.447 241.489 153.325C241.367 152.959 240.634 154.057 241.367 152.227C241.733 151.373 241.733 151.861 241.977 151.861C244.783 151.129 241.122 151.983 242.831 151.861L244.539 151.617C242.709 150.275 246.98 147.836 249.054 149.3C251.617 151.007 250.396 153.569 248.932 155.155C246.126 155.398 245.271 154.789 244.173 153.081ZM237.95 153.081C239.17 154.667 238.682 154.301 241 155.155C242.465 155.764 243.563 156.13 245.149 156.618C247.956 157.594 251.129 158.448 254.179 158.204L254.667 157.716C255.888 154.911 257.718 151.861 256.254 147.958C253.691 141.127 245.759 140.273 241.123 144.299C238.438 146.86 238.316 148.812 237.95 153.081Z" fill="#6F770A"/>
<path fill-rule="evenodd" clip-rule="evenodd" d="M197.071 138.078C197.438 136.736 197.804 135.76 199.756 135.76C201.342 135.76 201.708 136.492 202.319 137.346C204.027 142.591 196.217 142.103 197.56 139.298C194.753 138.688 195.241 139.907 194.631 139.298C193.289 137.956 195.973 138.566 197.071 138.078ZM192.679 137.224L192.801 140.639C196.949 142.225 201.098 141.371 203.173 142.225C205.003 141.981 206.711 139.907 208.298 138.2C207.444 137.102 207.322 134.784 205.735 133.199C202.197 129.417 194.143 130.271 192.679 137.224Z" fill="#6F770A"/>
<path fill-rule="evenodd" clip-rule="evenodd" d="M327.883 123.807C326.663 121.611 327.029 121.489 326.663 119.415C326.175 116.61 326.052 118.44 324.954 115.634L325.564 114.902C326.419 113.682 326.541 114.78 326.297 113.073L325.442 109.047C327.761 110.633 326.663 109.657 327.761 112.463L329.469 114.048C329.225 111.243 329.713 112.585 330.079 111.243C330.689 109.169 330.079 110.023 329.469 107.828C331.3 108.559 329.347 107.706 331.91 109.535L334.716 109.291C336.181 109.657 338.133 111.243 339.109 112.463C339.109 112.585 339.353 112.829 339.353 112.829C339.353 112.707 339.475 113.073 339.597 113.195L340.085 112.219C341.672 109.657 341.55 109.901 340.574 108.194L336.791 107.95C338.377 106.242 337.523 108.194 338.499 105.51C336.547 105.754 336.791 105.144 335.204 107.34L334.594 108.194C333.862 107.462 332.764 106.364 331.666 105.632C330.201 104.534 329.469 104.168 328.005 103.192C325.686 101.729 323.002 99.4112 320.561 98.1914C321.171 99.7771 321.538 100.875 322.27 102.705C318.975 101.729 320.927 101.607 319.219 102.583C320.439 104.9 325.32 113.682 324.222 116.488L319.219 103.314C318.121 100.753 317.389 101.119 314.338 100.631L320.317 125.636C322.27 126.124 323.368 125.88 324.954 125.148L325.32 125.88C325.32 126.002 325.442 126.124 325.442 126.246L326.663 132.345C327.029 134.297 327.273 134.419 328.127 135.394C328.371 130.759 327.517 127.344 326.419 122.709L327.883 123.807Z" fill="#393537"/>
<path fill-rule="evenodd" clip-rule="evenodd" d="M315.924 67.2093L314.704 68.0631V65.5016L313.24 67.0873C312.996 60.8665 311.897 63.6719 311.043 60.2566C311.165 60.3786 311.653 59.5247 311.043 60.5005C310.433 61.4763 310.921 61.1104 310.067 60.7445L310.433 57.3291L310.189 56.4753C309.701 53.9138 310.677 51.1083 310.311 49.4006C309.823 47.205 310.921 48.5468 308.847 47.449C306.772 49.5226 307.993 64.4038 297.865 73.5521C300.671 72.5762 303.478 68.795 305.308 66.5994C306.772 67.0873 313.85 70.7466 314.094 71.7224L313.24 78.3091C315.07 75.7476 316.168 71.1125 315.924 67.2093Z" fill="#393537"/>
<path fill-rule="evenodd" clip-rule="evenodd" d="M247.224 41.4721C245.882 37.6909 242.221 33.4217 243.441 28.5426C244.783 22.9317 250.397 25.3712 255.278 25.3712C251.129 21.5899 234.899 18.0526 242.099 34.5195C243.197 37.203 244.295 40.1304 247.224 41.4721Z" fill="#393537"/>
<path fill-rule="evenodd" clip-rule="evenodd" d="M225.015 43.4238C223.795 39.8864 220.744 36.4711 221.232 32.9338C221.843 28.0547 226.968 29.8843 230.384 30.2503C226.236 25.6151 212.569 24.6393 222.087 40.6183C222.697 41.5941 221.843 40.7403 222.941 41.8381L225.015 43.4238Z" fill="#393537"/>
<path fill-rule="evenodd" clip-rule="evenodd" d="M254.667 157.716L254.179 158.204C256.986 157.96 258.938 157.96 261.623 157.228C262.843 156.862 266.626 155.521 267.236 154.423C267.724 150.154 266.382 145.152 263.575 141.249C259.182 135.272 251.617 131.613 246.492 134.175C251.373 133.687 257.596 137.712 260.281 140.273C263.087 142.957 267.236 147.592 266.138 153.813L263.575 155.277C259.67 157.228 258.816 157.228 254.667 157.716Z" fill="#393537"/>
<path fill-rule="evenodd" clip-rule="evenodd" d="M338.133 324.946C338.621 326.776 339.353 328.118 340.94 329.094C341.672 327.02 341.794 327.996 341.184 325.678C339.475 324.458 339.841 324.702 338.133 324.946Z" fill="#FEFEFE"/>
<path fill-rule="evenodd" clip-rule="evenodd" d="M188.285 163.083C189.018 159.668 189.384 159.668 191.092 157.594C189.14 158.204 189.018 157.96 188.163 159.79C187.553 161.131 187.919 162.107 188.285 163.083Z" fill="#393537"/>
<path fill-rule="evenodd" clip-rule="evenodd" d="M193.411 196.749C194.387 197.603 194.265 197.846 195.973 197.846L200.122 197.725C200.488 194.553 203.295 193.821 206.589 193.211C210.25 192.601 213.057 192.601 216.718 192.967C215.863 193.089 213.545 194.675 212.569 194.797C213.667 194.797 223.673 191.992 227.456 197.603C228.676 199.432 228.554 201.14 226.968 202.116V202.36L230.384 201.75C232.093 201.14 233.679 200.042 235.631 199.188C242.099 196.139 248.566 190.406 251.129 183.697C250.519 182.721 252.227 182.843 249.298 182.965C246.614 183.331 245.882 183.087 243.807 184.063C243.563 185.405 240.512 186.869 239.048 187.844C237.218 189.064 236.608 189.43 234.411 190.04L233.679 190.772C231.727 190.894 230.994 191.382 229.164 191.626C226.724 192.114 226.724 191.504 225.747 191.626L224.893 191.992C220.744 193.089 215.253 191.626 211.348 190.772C211.226 190.772 211.104 190.772 210.86 190.65C210.738 190.65 210.616 190.65 210.372 190.528L207.444 190.04C200 188.21 200.732 188.332 200.61 186.259C199.512 188.454 198.536 187.113 196.339 186.015C193.655 184.551 193.167 185.039 192.923 181.868C192.312 183.453 193.045 182.477 191.824 182.965C189.75 179.672 187.797 179.55 187.431 172.109L192.434 174.671C192.312 174.549 192.19 174.305 192.19 174.427L189.384 172.231C187.919 171.378 186.699 171.134 185.967 169.914L189.628 167.718C185.967 166.376 180.72 169.426 182.672 175.525L183.893 171.987C184.625 179.916 187.187 191.26 193.411 196.749Z" fill="#663929"/>
<path fill-rule="evenodd" clip-rule="evenodd" d="M111.043 82.2124C111.654 82.8223 111.654 82.7003 110.799 82.7003C109.945 84.7739 109.457 83.7981 107.871 85.6278C107.505 86.2377 108.359 86.3596 107.139 85.9937C106.04 87.5794 104.82 91.9706 102.868 93.1903L102.99 95.142C114.582 96.8497 109.701 108.925 104.576 114.17C106.65 119.659 113.24 125.026 119.463 125.392C135.449 126.124 142.282 96.6057 131.3 83.1882C128.859 80.2608 127.151 80.1388 123.002 78.7971C117.511 78.6751 114.826 80.5048 111.043 82.2124Z" fill="#DCCF71"/>
<path fill-rule="evenodd" clip-rule="evenodd" d="M88.9567 99.8991C90.177 99.8991 89.4448 100.265 90.055 99.7771C91.5193 99.1672 91.1532 99.5331 91.8853 98.3133C91.8853 98.3133 92.7395 97.5815 93.2276 97.2156C94.2038 96.6057 94.814 96.3617 95.6681 95.8738C92.1294 96.3617 93.7157 96.9716 92.9836 95.7518C92.8615 95.5079 92.6175 95.6299 92.4955 95.5079C92.6175 94.1661 93.7157 89.1651 94.2038 88.5552C93.9598 83.3102 104.088 48.9127 106.406 44.7655L165.101 53.4259L156.193 76.7234C150.092 93.0683 144.966 112.097 143.014 129.783C141.672 141.737 142.77 150.154 142.892 161.741L90.299 153.447L90.055 151.495C88.8347 151.983 88.2246 152.471 87.1263 153.569C87.1263 157.716 89.3228 156.496 100.061 158.204C105.064 159.058 110.189 159.79 115.192 160.644C125.564 162.351 135.937 164.059 146.431 165.523C142.77 131.735 148.261 106.73 159.61 76.2355L169.738 50.7424L104.088 41.1062C103.112 45.3754 101.037 50.6204 99.4509 55.0116C97.8646 59.5247 96.5223 64.6477 95.18 69.4048C92.7395 79.4069 90.421 89.409 88.9567 99.8991Z" fill="#DCCF71"/>
<path fill-rule="evenodd" clip-rule="evenodd" d="M170.348 56.4753C171.568 57.817 171.934 57.3291 173.398 58.061C169.494 66.1115 165.833 74.2839 162.05 82.9443C159.976 87.5794 153.874 106.852 152.166 108.925C151.434 114.536 149.725 120.635 148.993 126.978C148.139 133.809 147.773 140.639 148.017 147.592C148.993 146.128 149.603 136.98 150.092 133.931C153.264 113.56 160.098 94.898 168.273 76.4795C171.324 69.4049 175.473 62.0862 178.035 55.4995L171.08 54.1577L170.348 56.4753Z" fill="#DCCF71"/>
<path fill-rule="evenodd" clip-rule="evenodd" d="M177.181 63.7939L180.232 64.4038C179.622 66.7213 175.717 73.3081 174.375 75.7476L158.267 109.779C155.095 121.855 151.068 135.272 151.312 149.178C152.166 146.982 153.02 140.151 153.63 136.858C157.779 117.586 165.711 99.6551 174.375 82.3344L184.869 62.6961L178.035 60.9884L177.181 63.7939Z" fill="#DCCF71"/>
<path fill-rule="evenodd" clip-rule="evenodd" d="M94.4478 88.5552C94.0817 91.6046 94.9359 90.6288 96.2782 92.9464L97.8645 91.4826C99.939 90.2629 102.868 92.8244 102.99 93.0683C102.99 91.6046 101.647 90.3848 102.379 88.5552C103.112 86.7255 104.698 86.2376 107.261 85.9937C108.359 86.3596 107.627 86.1157 107.993 85.6278L106.528 85.3838C106.528 83.4322 105.918 83.1882 106.772 81.7245L109.701 82.5783C109.823 82.5783 109.945 82.7003 109.945 82.7003L110.921 82.8223C111.775 82.9443 111.775 83.0662 111.165 82.3344C111.531 78.4311 113.85 78.4311 117.267 79.041C116.534 76.3575 115.802 75.0158 119.707 74.6498C119.097 77.5773 119.951 75.2597 118.243 76.9674C119.585 77.2113 120.195 76.9674 121.171 77.3333C123.002 77.9432 122.026 79.6509 122.758 78.5531C122.758 78.4311 122.88 78.797 123.002 78.919C127.151 80.3827 128.981 80.3828 131.3 83.3102C142.282 96.7277 135.326 126.246 119.463 125.514C113.24 125.27 106.65 119.781 104.576 114.292L103.356 115.39C104.454 123.928 103.6 123.441 99.0848 128.442C96.5222 131.247 98.7187 130.271 97.1324 134.175L95.546 136.492L94.6919 136.736C98.1086 142.347 92.2513 149.422 89.9329 151.861L90.1769 153.813L142.77 161.985C142.648 150.397 141.55 141.981 142.892 130.027C144.844 112.341 149.969 93.4343 156.071 76.9674L165.101 53.5478L106.406 44.8875C104.21 48.9127 94.2038 83.3102 94.4478 88.5552Z" fill="#8F9A06"/>
<path fill-rule="evenodd" clip-rule="evenodd" d="M152.166 109.047C153.874 106.852 159.976 87.5794 162.05 83.0663C165.833 74.4059 169.494 66.2335 173.398 58.183C171.934 57.4511 171.568 57.939 170.348 56.5973C167.541 60.9885 162.294 75.7477 160.22 81.8465C157.047 90.5069 153.996 99.5331 152.166 109.047Z" fill="#8F9A06"/>
<path fill-rule="evenodd" clip-rule="evenodd" d="M158.267 109.779L174.497 75.7476C175.839 73.3081 179.744 66.7214 180.354 64.4038L177.303 63.7939C173.642 66.9653 159.609 102.705 158.267 109.779Z" fill="#8F9A06"/>
<path fill-rule="evenodd" clip-rule="evenodd" d="M323.978 442.776C321.782 444.85 320.195 444.728 318.487 445.216C318.975 442.776 312.874 433.384 321.66 429.847L321.782 428.871C323.124 437.775 327.883 446.801 334.228 451.924C341.062 457.413 351.922 462.658 358.267 454.486C356.559 453.388 353.874 452.534 351.922 451.436C345.333 447.777 342.16 444.118 337.401 438.385C334.716 438.995 331.544 442.532 329.469 441.19C327.151 439.727 324.588 426.187 332.276 424.236L334.35 431.066C334.35 430.944 337.889 436.677 338.865 437.775C340.329 439.361 343.502 442.776 345.333 443.508C345.821 440.824 345.699 442.532 347.895 441.556C347.651 438.751 347.407 434.604 348.139 432.53L349.237 431.92V427.773L347.895 427.041C347.773 426.919 347.529 426.675 347.529 426.553L346.797 425.699C348.261 424.602 348.871 424.845 349.603 424.602C349.603 424.602 350.214 425.211 350.58 423.626C350.702 422.894 350.702 423.26 350.458 422.04L349.603 420.82L348.871 421.552C347.651 422.894 344.234 428.627 340.085 429.481C337.889 427.651 335.448 422.65 335.57 418.625C335.692 413.624 338.255 411.184 342.648 410.33L345.455 415.697C345.577 415.697 345.699 415.575 345.821 415.575C348.261 415.209 349.115 415.941 349.969 414.355L347.529 414.721C347.163 413.624 347.163 413.38 346.553 412.282C346.065 411.55 345.699 411.184 345.088 410.208C344.6 409.232 343.502 406.183 343.258 404.963C342.526 399.352 345.455 397.523 347.285 395.327C346.797 394.595 347.041 393.741 348.871 392.766L348.383 389.96C350.092 388.496 349.725 390.082 348.627 388.984C345.699 389.106 340.452 392.888 338.865 394.595C336.547 397.035 333.496 399.596 332.52 404.231C332.52 404.109 332.398 403.865 332.398 403.865C332.398 403.743 332.276 403.621 332.276 403.499C331.666 400.938 332.764 403.256 332.032 402.28C327.395 404.475 316.534 412.77 312.996 416.307C311.287 418.015 310.067 420.454 307.627 421.43C307.749 426.187 308.481 430.7 309.579 435.092L313.972 445.582C313.24 440.337 312.02 434.726 314.338 430.09C312.752 452.9 328.493 465.586 337.401 459.731C338.377 459.121 337.889 459.487 338.255 458.999C333.008 454.242 332.886 456.315 326.907 447.533C325.442 445.338 325.198 444.118 323.978 442.776Z" fill="#E9C6B3"/>
<path fill-rule="evenodd" clip-rule="evenodd" d="M88.4686 149.666C88.2245 148.934 89.5668 147.958 90.299 146.494C93.8377 139.42 88.4686 133.809 88.1025 132.833C87.7364 132.711 87.1263 132.589 86.0281 132.467C86.0281 132.833 89.8109 140.395 83.2215 144.055C78.0964 146.982 75.0458 142.225 76.9982 137.224C77.2422 136.736 77.7303 135.638 77.8524 135.516L78.4625 134.419C78.4625 134.175 78.5845 134.175 78.7065 134.053H77.4863C78.7065 133.321 80.0488 132.589 81.2691 131.857C78.8286 126.612 77.9744 129.905 79.8048 125.148L80.0488 123.197C70.4088 126.612 71.9951 137.59 70.5308 140.883C67.2361 148.568 69.5546 156.862 75.0458 160.034C78.2184 158.692 80.903 157.716 85.2959 157.838L85.1739 154.301C82.9774 154.667 78.5845 155.764 75.9 153.935C75.1678 153.447 75.5339 153.813 75.0458 153.081C78.2184 153.691 79.8048 154.179 83.0995 153.081C85.1739 152.715 87.6144 151.861 88.4686 149.666Z" fill="#E9C6B3"/>
<path fill-rule="evenodd" clip-rule="evenodd" d="M225.503 249.321L223.307 247.491C223.307 247.369 222.819 247.125 222.697 246.759L224.893 246.149C224.771 246.027 224.527 245.905 224.527 245.905L223.917 245.417L223.795 245.296C223.429 244.686 226.968 244.32 227.578 244.32C226.724 243.71 228.676 243.71 226.235 243.71C222.331 243.466 210.982 247.735 200.366 246.515C200.854 248.589 201.586 249.565 202.318 251.394C203.295 254.078 202.074 253.468 201.708 256.029C217.694 257.981 207.81 256.273 218.548 261.152L222.941 251.882C223.795 249.321 223.307 249.443 225.503 249.321Z" fill="#E9C6B3"/>
<path fill-rule="evenodd" clip-rule="evenodd" d="M361.44 372.151C361.806 373.493 361.684 373.005 361.928 373.493L367.175 357.88C373.154 342.145 377.791 343.975 386.333 350.318C390.238 353.245 390.726 353.977 393.777 358.002C395.851 360.686 396.461 363.247 397.926 364.589C396.339 352.269 384.747 343.121 374.985 341.047C367.297 339.34 364.613 344.707 363.514 351.415C363.026 354.465 361.318 369.59 361.44 372.151Z" fill="#E9C6B3"/>
<path fill-rule="evenodd" clip-rule="evenodd" d="M197.56 139.298L197.071 138.078C195.973 138.566 193.167 137.956 194.631 139.298C195.241 139.907 194.875 138.688 197.56 139.298Z" fill="#E9C6B3"/>
<path fill-rule="evenodd" clip-rule="evenodd" d="M67.6021 161.619C63.5753 154.423 64.1854 152.715 64.6735 143.933C62.111 146.25 57.1079 154.667 55.0335 157.96C21.1104 212.972 26.7235 288.597 67.2361 336.9C77.2422 348.732 84.3196 356.294 97.0103 365.687C105.918 372.273 116.29 378.616 126.663 383.007C129.347 384.105 132.276 385.569 135.082 386.423C134.594 379.592 132.642 371.542 131.788 364.345C129.835 348.488 128.859 333.607 129.957 317.506C130.445 309.577 131.91 303.235 133.008 295.916L93.1055 260.055C85.0518 252.858 86.6381 256.517 84.0756 243.832L70.4087 181.746C69.6766 178.33 68.8224 174.793 68.0902 171.378C67.7242 169.548 67.2361 167.84 66.87 166.011C66.3819 163.327 67.114 164.059 67.6021 161.619Z" fill="#E0F3FF"/>
<path fill-rule="evenodd" clip-rule="evenodd" d="M295.302 169.182C296.4 165.401 301.647 158.936 304.21 157.472C310.189 154.057 315.192 159.058 316.412 163.937L312.874 160.156C308.115 156.13 302.379 159.912 299.329 163.693C301.403 162.717 303.356 161.131 306.406 162.107C308.847 162.839 309.945 164.547 309.701 167.474C308.847 164.547 306.284 162.351 302.379 163.571C301.037 164.059 299.085 165.279 298.353 166.132C297.376 166.986 295.79 168.45 295.302 169.182ZM188.286 163.083C187.797 162.107 187.553 161.253 188.163 159.79C189.018 157.838 189.14 158.082 191.092 157.594C189.506 159.668 189.018 159.668 188.286 163.083ZM215.985 158.57C214.399 160.156 209.152 155.764 210.372 152.959C210.738 152.715 209.762 152.349 211.836 152.593L214.643 154.301C215.375 155.155 217.084 157.472 215.985 158.57ZM196.339 152.837C195.485 149.544 198.78 148.446 199.756 149.544C200.61 150.397 199.878 151.617 199.268 152.227C198.414 153.081 198.17 153.203 196.339 152.837ZM221.476 154.301C223.917 154.911 224.283 157.106 223.917 159.79C223.185 160.522 222.209 161.863 221.599 161.131L220.5 159.18C219.158 155.764 219.768 157.106 216.962 154.423C215.131 152.593 212.447 151.251 210.25 150.763C212.569 150.763 214.399 151.129 216.351 151.739C220.622 152.959 218.67 153.813 221.476 154.301ZM211.348 105.022C211.714 107.584 213.057 111.975 212.569 114.292C213.179 116.244 212.325 116.366 213.545 117.342C215.253 118.927 215.741 123.197 215.375 126.612C216.107 125.636 216.84 124.05 215.863 123.197C217.206 130.149 217.084 131.613 214.033 136.614C213.423 137.59 213.179 138.2 211.958 139.176L205.003 144.055C203.905 144.177 204.149 144.421 204.149 143.567C202.44 144.299 201.708 144.787 201.708 143.811C201.708 143.689 201.708 143.689 201.708 143.567C197.681 144.177 192.8 143.933 190.238 141.615C197.071 143.079 195.729 143.445 203.173 142.469C200.976 141.737 196.827 142.591 192.8 140.883L192.678 137.468C192.556 137.59 192.556 137.712 192.434 137.834L192.068 138.566C192.068 138.688 191.946 138.81 191.946 138.932L185.601 134.418C185.113 137.468 184.991 135.394 185.601 136.492C184.625 138.566 182.062 138.078 181.574 138.078C181.208 139.907 182.306 139.664 180.354 139.298L180.11 140.029L181.574 140.517L175.961 146.86C174.131 149.3 172.91 151.617 171.812 154.789C169.616 161.741 169.982 168.816 170.714 176.379C171.08 179.55 177.425 215.655 175.107 218.826C176.571 231.024 177.669 232.122 185.845 237.367C200.488 246.637 217.816 242.978 233.557 237.977C237.462 236.757 252.837 231.512 254.789 229.804C262.965 227.609 280.171 214.435 285.662 208.215L293.228 200.53C289.201 209.8 274.07 222.242 265.162 227.731C259.548 231.268 253.325 233.83 246.614 236.513L228.432 242.612C228.31 242.612 227.334 242.978 227.212 242.978L225.747 243.832C228.31 243.832 226.235 243.832 227.09 244.442C226.48 244.442 222.941 244.808 223.307 245.417L223.429 245.539L224.039 246.027C224.161 246.149 224.283 246.271 224.405 246.271L222.209 246.881C222.453 247.125 222.819 247.491 222.819 247.613L225.015 249.443C241.367 250.662 270.409 242.734 284.564 236.391C287.004 235.293 286.638 233.952 287.492 231.268C290.055 223.34 298.353 199.432 299.329 194.553C294.814 195.651 291.031 197.359 287.126 194.675C294.204 196.749 304.332 192.845 306.284 189.918C305.43 188.82 305.674 190.04 306.406 189.064C307.138 188.21 317.511 182.721 319.463 172.353C320.195 168.206 320.561 162.229 318.731 158.448C315.314 151.617 310.677 155.277 308.725 153.203C305.43 153.813 302.257 155.521 299.939 157.106L298.963 157.96C298.841 158.082 298.719 158.082 298.597 158.204C297.987 158.57 298.231 158.448 297.62 158.692L295.058 159.668C294.326 158.326 292.983 155.886 293.106 155.155C293.106 155.033 293.472 154.179 293.472 154.057C294.936 150.885 294.326 151.861 295.79 151.373C298.963 146.006 305.674 140.761 305.918 135.882C306.04 133.687 305.186 131.125 304.82 129.052C305.308 129.661 304.82 129.173 305.552 129.905C306.162 130.515 306.284 130.637 306.65 131.003C306.162 127.832 304.21 125.27 303.234 122.709L307.871 127.222C307.993 127.344 308.115 127.466 308.237 127.466C307.627 124.05 306.04 119.903 304.332 117.952C305.308 118.805 306.406 120.025 307.627 120.757C307.627 117.464 306.528 114.78 305.674 112.097C307.627 113.438 307.016 113.804 308.481 115.024C308.725 105.632 297.62 83.1882 289.933 75.8696C282.123 68.429 274.314 62.6961 265.162 56.7192C263.697 55.7434 262.233 54.7676 260.891 53.9138C259.06 52.694 257.962 51.5962 256.62 50.7424C257.596 56.5973 260.525 61.2324 262.477 66.4774C254.912 65.3796 251.129 60.1346 246.98 57.2071C246.37 59.0368 246.126 58.5489 244.661 59.8906C243.319 61.1104 243.807 60.9884 241.977 61.5983C242.709 63.306 243.563 64.2818 244.539 65.7455L238.804 64.5258C238.438 65.1356 238.682 65.8675 236.608 65.8675C233.679 65.8675 232.093 64.4038 222.697 65.7455C221.843 65.8675 220.5 65.9895 220.012 66.2334L217.938 67.5752C228.066 67.4532 233.191 66.4774 242.831 68.9169C248.322 70.3806 256.742 73.674 261.135 77.3333C254.301 73.918 244.661 68.9169 235.509 68.673C233.923 69.7708 230.872 73.0641 230.14 74.4059H218.426C220.012 76.3575 218.182 75.0158 220.378 75.8696C220.378 75.8696 221.843 75.9916 221.965 75.9916C236.852 76.4795 242.831 78.1872 256.498 86.6036C254.911 86.1157 245.027 80.2608 241.001 80.0168C239.536 78.797 236.974 78.3091 235.021 77.8212C227.09 76.1136 228.432 75.8696 223.185 83.5541C216.595 92.9464 215.863 94.5321 211.348 105.022ZM242.221 197.603C240.512 199.92 236.73 202.969 233.435 204.799C225.259 209.434 216.229 210.532 207.444 208.458C201.464 206.995 200.732 206.507 196.217 204.311C199.512 204.433 218.426 213.581 232.947 203.945L242.221 197.603ZM183.893 171.743L182.672 175.281C180.72 169.182 185.967 166.132 189.628 167.474L185.967 169.67C186.699 170.89 188.041 171.012 189.384 171.987L192.19 174.183C192.19 174.061 192.312 174.305 192.434 174.427C193.045 175.525 192.312 174.671 193.533 175.647L202.929 179.184C211.592 182.477 220.134 183.941 229.53 184.185C232.581 184.307 242.221 183.331 243.685 183.819C245.882 182.843 246.492 183.087 249.176 182.721C252.227 182.721 250.397 182.599 251.007 183.453C247.712 192.114 236.12 200.53 226.846 202.238C221.11 206.873 200.488 201.994 197.193 199.432C195.485 198.212 196.705 199.676 195.851 197.846C194.265 197.846 194.265 197.603 193.289 196.749C187.187 191.26 184.625 179.916 183.893 171.743ZM252.593 179.794L249.908 178.574L252.227 178.086C252.715 178.452 252.349 178.208 253.325 178.696C258.206 181.258 257.718 182.477 259.304 186.991C257.84 184.063 255.278 180.77 252.593 179.794ZM237.95 153.447L234.533 151.007C231.971 149.056 226.48 144.177 228.798 140.883C232.947 134.906 240.146 134.418 246.248 134.418C250.03 132.467 256.986 135.882 261.013 139.176C266.016 143.323 267.236 148.69 266.992 154.545C266.504 155.642 262.599 156.984 261.379 157.35C258.694 158.082 256.742 158.082 253.935 158.326C250.885 158.57 247.712 157.716 244.905 156.74C243.441 156.252 242.221 155.886 240.757 155.277C238.56 154.301 238.926 154.667 237.706 153.203L237.95 153.447ZM253.081 132.589C248.688 131.247 245.638 131.491 241.001 131.857L250.397 130.637C258.328 131.857 267.724 136.004 268.456 145.152C267.114 142.957 266.26 141.005 265.04 139.42C262.233 136.004 258.694 134.297 253.081 132.589ZM238.194 109.901C236.852 110.145 238.072 109.535 236.486 110.267C237.34 108.925 238.56 108.315 240.024 107.096C241.977 106.364 245.271 104.046 247.956 102.826C256.986 98.5573 269.555 101.485 275.9 106.242C277.242 107.218 277.608 107.828 279.195 108.925C284.93 112.829 284.808 113.195 287.37 117.952C290.177 123.319 290.177 132.345 289.933 138.932C288.591 133.809 288.347 130.149 286.272 125.27C281.025 112.951 265.528 105.876 251.861 106.486C251.129 105.51 248.566 106.608 244.783 107.584C239.414 108.925 239.536 107.95 238.194 109.901Z" fill="#D9A689"/>
<path fill-rule="evenodd" clip-rule="evenodd" d="M333.618 306.04C338.377 295.184 341.672 286.768 344.722 274.204C350.336 250.906 350.092 221.388 343.502 198.334C341.794 192.358 340.329 187.722 338.255 182.355C336.425 177.598 333.13 171.499 331.91 167.474C327.273 168.938 329.591 171.499 327.029 177.232C324.954 182.111 317.755 188.698 313.484 191.504C311.775 192.601 310.677 193.211 309.091 194.187C306.65 195.529 307.016 195.041 306.04 197.725L291.153 238.465C290.665 240.904 291.397 248.955 291.153 252.614C290.909 256.151 290.299 255.664 292.129 257.615C293.472 259.079 294.204 259.689 295.424 260.909L306.04 271.521C307.261 272.74 307.627 273.594 309.091 275.058C313.24 279.327 323.978 292.988 327.761 298.355C329.225 300.307 331.788 304.21 333.618 306.04Z" fill="#E0F3FF"/>
<path fill-rule="evenodd" clip-rule="evenodd" d="M361.44 372.152L359.854 375.811C359.365 376.909 358.511 378.006 357.901 378.86C357.169 379.958 356.559 380.934 355.827 381.91L354.362 383.983C353.996 384.471 353.874 384.471 353.63 384.593L352.898 385.081C352.776 385.203 352.654 385.203 352.532 385.325L350.58 387.399L349.481 388.374C348.749 388.74 348.993 388.618 348.505 389.106C349.603 390.204 349.969 388.618 348.261 390.082L348.749 392.888C346.919 393.985 346.675 394.717 347.163 395.449C350.946 393.375 354.362 393.619 359.365 393.741C360.586 399.23 359.731 402.402 357.291 406.549C355.461 409.598 352.898 413.38 349.847 414.477C348.993 416.063 348.139 415.331 345.699 415.697C345.576 415.697 345.454 415.697 345.332 415.819C345.454 416.063 345.943 417.283 346.065 417.283C346.187 417.405 346.431 417.771 346.553 417.893C347.651 418.991 345.699 417.893 347.651 418.625C350.213 420.088 354.972 427.651 367.663 433.262C377.059 437.287 389.628 436.311 389.872 424.845C389.994 415.331 383.526 408.257 377.547 402.158C372.3 396.791 364.124 391.546 353.386 391.302C366.199 388.374 378.279 398.377 383.526 403.5C382.794 400.572 380.72 398.255 379.378 396.059C388.53 388.009 398.78 378.494 398.17 364.589C396.705 363.247 396.095 360.686 394.021 358.002C390.97 353.977 390.482 353.245 386.577 350.318C378.035 343.975 373.398 342.145 367.419 357.88L362.172 373.493C361.684 373.005 361.806 373.493 361.44 372.152Z" fill="#D9A689"/>
<path fill-rule="evenodd" clip-rule="evenodd" d="M176.449 138.322C176.327 131.247 170.958 121.489 175.229 100.143C175.961 96.3617 177.425 92.3365 178.035 88.7992C175.229 92.3365 171.324 102.461 169.128 107.706C158.511 133.443 156.437 150.641 157.047 179.184L114.46 168.938L141.306 212.362C144.234 217.119 142.648 216.753 148.505 218.826C152.044 220.046 166.565 225.413 168.883 225.779C167.907 217.607 166.931 208.946 165.711 200.652C164.491 192.601 162.416 185.039 161.196 177.354C158.267 158.204 165.223 145.152 176.449 138.322Z" fill="#E0F3FF"/>
<path fill-rule="evenodd" clip-rule="evenodd" d="M345.332 443.386C346.431 445.46 351.068 447.533 353.508 448.753C364.613 454.242 378.279 451.07 378.889 438.873C376.205 437.653 372.422 437.287 369.616 436.189C364.735 434.238 356.925 428.627 353.142 424.967C351.922 423.748 351.678 423.016 350.336 422.162C350.58 423.382 350.702 423.138 350.458 423.748C350.091 425.333 349.603 424.724 349.481 424.724C348.627 424.967 348.139 424.724 346.675 425.821L347.407 426.675C347.529 426.797 347.773 427.041 347.773 427.163L349.115 427.895V432.042L348.017 432.652C347.163 434.726 347.529 438.873 347.773 441.678C345.699 442.288 345.821 440.58 345.332 443.386Z" fill="#D9A689"/>
<path fill-rule="evenodd" clip-rule="evenodd" d="M271.141 374.591C276.022 371.298 286.882 364.833 290.543 360.686L274.68 352.269C273.093 356.782 270.409 369.346 271.141 374.591Z" fill="#BCB19B"/>
<path fill-rule="evenodd" clip-rule="evenodd" d="M106.406 166.01L106.773 163.693C106.406 163.327 106.65 163.327 105.796 163.083L95.5461 160.887C98.1087 161.985 104.088 165.279 106.406 166.01Z" fill="#BCB19B"/>
<path fill-rule="evenodd" clip-rule="evenodd" d="M244.173 153.081L244.539 151.495L242.831 151.739C241.245 151.861 244.905 151.007 241.977 151.739C241.611 151.861 241.733 151.251 241.367 152.105C240.512 153.813 241.367 152.837 241.489 153.203C243.197 153.447 241.977 153.081 244.173 153.081Z" fill="#BCB19B"/>
<path fill-rule="evenodd" clip-rule="evenodd" d="M209.64 277.619L204.271 287.134L205.613 278.595L209.64 277.619ZM348.871 101.485L348.749 99.7771C348.993 99.2892 348.871 100.021 349.237 98.5573C349.603 97.0936 349.237 98.9232 349.359 97.5815C349.359 97.2156 349.359 96.1178 349.481 95.5079C349.115 75.2597 341.916 62.2082 330.934 53.9138C319.585 45.3754 307.993 38.6667 292.984 32.3239C277.242 25.7371 277.242 28.7865 260.891 19.5163C255.278 16.3449 257.962 18.6625 254.545 14.7592C253.813 13.9054 253.569 13.6614 252.959 12.8076C245.027 2.80547 221.721 -12.9295 226.602 19.3943C223.307 18.1746 217.45 12.6856 210.616 13.6614C203.783 14.6372 205.369 22.4437 206.467 28.2986C194.387 24.1514 196.705 33.2997 198.902 40.4963C195.729 40.2524 195.363 40.0084 193.533 41.5941C191.824 48.3028 200.488 54.8896 203.295 57.3291C200.244 59.5247 193.289 68.1851 190.726 72.0883C187.065 77.5773 184.015 83.6761 181.574 90.7508C172.788 117.464 180.598 133.199 180.476 139.054C182.428 139.542 181.33 139.785 181.696 137.834C178.89 132.833 178.279 116.854 179.012 109.779C179.5 104.534 179.134 105.266 182.184 102.948C186.821 99.4111 191.702 98.0694 198.658 100.265C203.905 101.851 205.125 103.802 208.054 106.608C210.738 109.169 208.908 107.218 209.884 107.584C210.738 109.047 212.447 112.463 212.813 114.292C213.301 111.975 211.958 107.462 211.592 105.022C209.884 103.07 211.714 102.826 206.711 98.3134C204.637 96.4837 201.708 95.02 198.414 94.5321C194.997 93.9222 191.214 94.1661 188.041 95.142C184.015 96.4837 183.282 98.1914 180.842 99.5331C181.94 92.0925 187.065 81.8465 190.482 76.3575C193.533 71.3565 200.976 62.3302 205.735 58.7929C209.03 60.3786 210.372 61.3544 214.887 61.5983C213.545 59.6467 212.813 59.2808 211.592 57.2072C215.253 59.5247 218.67 63.428 225.137 63.9159C224.161 61.8423 217.45 52.572 219.28 49.5226C220.744 50.0105 225.137 55.2555 228.554 57.817C231.239 59.8906 235.753 63.306 239.78 64.4038L245.516 65.6236C244.661 64.1598 243.807 63.184 242.953 61.4763C240.146 58.5489 235.631 48.3028 235.876 42.9359C237.95 43.0578 236.974 42.6919 239.292 46.1073C240.146 47.327 241.001 48.6688 241.977 49.8885C243.929 52.4501 246.248 54.6456 247.956 56.9632C252.105 59.7687 255.888 65.0137 263.453 66.2334C261.501 60.8665 258.572 56.3533 257.596 50.4984C259.06 51.4742 260.159 52.4501 261.867 53.6698C263.209 54.6456 264.674 55.4995 266.138 56.4753C275.29 62.4522 283.099 68.307 290.909 75.6257C298.597 82.9443 309.701 105.388 309.457 114.78C307.993 113.438 308.603 113.195 306.65 111.853C307.505 114.536 308.603 117.22 308.603 120.513C307.505 119.781 306.406 118.562 305.308 117.708C307.016 119.659 308.481 123.807 309.213 127.222C309.091 127.1 308.969 126.978 308.847 126.978L304.21 122.465C305.186 125.026 307.138 127.588 307.627 130.759C307.138 130.393 307.016 130.271 306.528 129.661C305.918 128.93 306.284 129.417 305.796 128.808C306.162 130.881 307.016 133.443 306.894 135.638C306.65 140.517 299.939 145.762 296.766 151.129C296.4 152.837 298.353 154.789 299.085 156.862L300.793 156.74C303.234 155.155 306.284 153.447 309.579 152.837C323.49 149.788 324.71 162.229 322.514 171.743C320.805 179.672 311.653 188.21 307.016 189.552C304.942 192.479 294.936 196.261 287.858 194.309C291.763 196.993 295.546 195.285 300.061 194.187C299.085 199.188 290.787 222.974 288.225 230.902C287.37 233.586 287.614 234.927 285.296 236.025C271.141 242.368 242.099 250.297 225.747 249.077C223.551 249.199 224.161 249.077 223.063 251.516L218.67 260.787C207.932 255.907 217.816 257.615 201.83 255.664C202.196 253.102 203.417 253.712 202.44 251.028C201.708 249.199 200.976 248.223 200.488 246.149C211.226 247.491 222.453 243.222 226.358 243.344L227.822 242.49C227.822 242.49 228.92 242.124 229.042 242.124L247.224 236.025C253.935 233.464 260.159 230.78 265.772 227.243C274.558 221.754 289.689 209.312 293.838 200.042L286.272 207.727C280.781 213.947 263.575 226.999 255.4 229.317C253.447 231.024 237.95 236.147 234.167 237.489C218.304 242.49 201.098 246.149 186.455 236.879C178.279 231.634 177.181 230.536 175.717 218.339C174.253 203.335 171.568 191.26 169.005 177.11C167.663 170.036 166.687 162.229 168.761 155.277C171.08 147.592 174.985 146.128 178.157 141.981L178.523 141.371C164.002 151.129 163.27 166.132 166.809 182.355C170.958 201.75 171.446 214.923 174.619 231.146C167.175 229.317 157.413 225.291 149.847 222.608C142.77 220.046 143.746 221.754 140.085 215.777L121.293 185.649C118.731 181.746 111.409 168.206 107.993 166.498L109.213 163.449L154.118 174.183C152.776 140.883 162.05 112.219 176.571 84.408L189.75 60.2566L180.476 58.061L182.672 53.1819L173.398 51.3523L174.619 48.3028L104.088 37.8128C101.891 41.8381 95.9121 62.2082 94.3258 67.9411C91.3972 78.5531 89.2007 89.0431 87.3703 100.021L89.8108 99.7771C91.2751 89.2871 93.5936 79.285 96.1562 69.2829C97.3764 64.5258 98.8407 59.4027 100.427 54.8896C101.891 50.4984 104.088 45.2534 105.064 40.9842L170.714 50.6204L160.586 76.1136C149.237 106.73 143.746 131.613 147.407 165.401C136.913 163.937 126.541 162.229 116.168 160.522C111.165 159.668 106.04 158.936 101.037 158.082C90.2989 156.374 88.1025 157.594 88.1025 153.447C89.2007 152.471 89.8108 151.983 91.0311 151.373C93.3496 148.934 99.2068 141.859 95.7901 136.248L94.4478 133.809C91.7632 131.491 90.1769 131.003 85.5399 131.125C82.1232 131.857 81.5131 132.223 78.4625 134.053H79.6827C82.0012 132.101 83.4655 132.345 87.0042 132.467C95.9121 133.809 96.2782 144.421 90.2989 149.056C89.6888 149.544 89.9329 149.3 89.4448 149.544C88.5906 151.617 86.1501 152.593 83.8316 153.325C80.6589 154.423 78.9505 153.935 75.7779 153.325C76.388 154.057 75.8999 153.569 76.6321 154.179C79.3166 156.008 83.7096 154.789 85.906 154.545L86.028 158.082C81.6351 157.96 79.0726 158.814 75.7779 160.278C70.2867 157.106 68.0903 148.812 71.2629 141.127C72.7272 137.834 71.1409 126.856 80.7809 123.441C82.6113 121.489 87.1263 120.757 90.2989 121.733C91.5192 121.855 91.0311 121.733 92.0073 122.221C92.9835 122.709 92.3734 122.343 92.9835 123.075C95.0579 123.563 96.6443 125.392 97.3764 128.076C98.2306 131.247 97.1324 133.687 96.4002 136.248C97.1324 136.004 97.9865 134.906 98.2306 134.053C99.0848 131.857 98.3526 129.783 99.939 128.198C104.454 123.319 105.308 123.685 104.21 115.146L105.43 114.048C110.555 108.803 115.314 96.7277 103.844 95.02C101.037 94.2881 99.0848 95.5079 96.6443 95.8738C95.9121 96.3617 95.18 96.6057 94.2037 97.2156C93.5936 97.5815 92.8615 98.3134 92.8615 98.3134C94.6919 97.7035 95.546 97.0936 97.3764 96.7277C97.9866 96.3617 98.5967 95.9958 99.6949 95.9958C100.549 95.9958 100.427 96.1178 101.037 96.2398L101.891 96.6057C105.796 95.7518 108.359 100.387 107.871 104.656C107.505 108.193 105.064 112.097 102.99 113.682L101.525 112.463C98.2306 110.145 94.5698 109.291 89.9329 110.267V110.755C95.0579 110.267 99.5729 111.609 101.281 115.512C102.135 117.464 102.135 120.025 101.281 122.099C100.915 122.953 100.305 124.05 99.8169 124.782C97.7425 127.832 98.3526 126.368 98.1086 125.88C96.5222 124.66 96.7663 124.05 94.9359 122.831L90.9091 120.757C90.9091 120.635 90.665 120.635 90.543 120.513H82.4893L77.6083 122.709C77.7303 120.025 79.1946 118.318 79.5607 116.732C79.5607 116.61 78.9505 117.098 78.8285 117.098L78.5845 117.22C75.7779 119.049 78.5845 121.367 74.8017 125.026C67.4801 132.223 71.385 135.028 70.6528 138.566C70.4088 139.785 69.0665 142.103 68.5784 144.055C66.992 150.154 67.8462 158.326 72.6052 161.375C70.8969 165.523 69.9207 162.717 71.2629 168.694L88.7126 248.223C90.0549 254.322 92.0073 253.834 94.9359 256.639L105.186 266.032C106.162 267.007 106.65 267.251 107.749 268.105L131.055 288.841C132.154 289.695 132.398 290.183 133.374 291.037C135.57 293.11 137.645 292.866 136.669 296.892C130.811 323.117 133.008 350.074 137.279 376.543C139.231 388.252 138.255 388.374 143.624 389.228C142.282 379.47 140.085 369.59 138.743 359.466C137.279 348.732 136.425 337.754 136.425 326.654C136.425 315.798 137.279 304.82 139.597 294.696C141.184 287.743 145.332 274.326 148.749 269.813C150.946 264.202 154.728 260.787 157.657 256.395L154.24 259.811C153.386 260.909 152.41 262.25 151.678 263.348C149.725 266.154 148.505 267.861 146.675 270.911C145.088 273.472 143.746 276.522 142.526 279.327L138.743 288.231L105.918 260.909C92.7394 248.955 93.3496 254.444 90.2989 241.27C88.8346 235.171 72.3612 168.694 71.9951 164.547C79.8047 155.886 94.3258 161.375 103.844 166.132C106.772 167.596 106.528 166.986 108.237 169.914C111.653 175.525 139.231 219.68 140.207 222.364C134.228 222.12 133.618 223.096 129.469 223.828C134.594 223.34 141.916 222.608 146.431 224.925C143.014 225.169 141.428 225.535 138.377 226.267C143.014 226.633 146.553 225.657 152.288 226.755C156.071 227.487 160.83 229.317 164.246 230.536C166.687 231.39 174.131 233.464 175.717 234.683C177.303 235.903 177.913 237.123 179.988 238.465C187.187 243.222 192.922 243.588 196.217 245.539C197.804 246.515 198.17 249.321 198.902 251.028C199.878 253.59 199.756 253.712 198.658 256.273C196.339 261.396 192.068 273.838 189.262 277.741L185.479 266.397C185.601 269.447 188.896 282.254 190.238 284.694C192.678 280.669 193.289 274.936 195.607 272.984L195.729 275.546C198.536 273.35 194.509 274.082 195.851 270.301L200.976 257.249C207.199 256.883 214.765 258.835 217.328 262.616L212.691 272.008C211.714 273.472 212.447 272.496 211.592 273.106C211.47 274.814 212.203 273.472 210.738 274.57C210.25 274.936 209.396 275.18 208.908 275.302C207.566 275.79 206.467 276.156 204.881 276.034C202.44 290.549 201.464 292.379 202.074 308.967C202.441 318.604 204.027 331.533 206.223 340.315C207.444 344.951 208.298 349.83 209.518 354.709C211.104 361.173 213.301 365.199 210.982 368.248C208.298 371.664 206.589 374.469 203.539 378.494C202.196 380.324 201.22 381.666 199.878 383.373C198.292 385.447 197.804 386.911 196.095 388.252L190.604 382.641C190.604 382.519 190.482 382.397 190.36 382.276C190.36 382.154 190.238 382.032 190.116 382.032C189.384 380.934 189.384 381.178 188.408 380.202L181.33 371.785L180.598 371.298C176.815 367.882 177.303 367.76 177.791 364.467L178.89 354.343C178.89 353.977 179.012 353.367 179.134 352.879C179.378 351.659 179.134 352.635 179.622 351.903V348.122C181.208 334.827 182.672 322.995 184.869 310.309C186.699 300.063 188.652 294.33 191.702 285.304C192.434 282.986 194.265 279.449 194.265 277.375C188.774 287.134 183.282 307.26 180.842 319.823C179.744 325.19 172.91 366.54 173.764 368.858L197.193 393.131L210.616 373.859C216.229 366.053 216.229 367.516 215.009 363.003C209.274 340.925 201.708 316.164 203.539 292.501C210.372 291.891 230.506 288.231 235.143 286.158C226.846 286.768 216.473 289.817 207.199 288.963L215.009 271.886L224.771 250.662C237.462 249.687 245.76 249.443 257.718 246.271C270.897 242.856 275.656 240.05 285.906 236.879C286.272 242.612 286.394 248.467 285.906 254.2C284.93 265.178 283.465 260.299 279.195 265.788C281.269 264.69 282.733 263.348 284.686 262.128L285.906 261.152C290.299 263.226 302.99 278.473 307.627 283.474C311.653 287.743 322.88 302.991 326.174 307.748C338.133 324.946 337.035 322.751 346.187 338.242C348.017 341.413 349.847 344.219 351.922 347.634C357.535 356.904 362.538 361.296 360.586 367.882C359.732 374.103 356.071 379.714 353.386 384.105C353.508 383.983 353.63 383.861 354.118 383.495L355.583 381.422C356.315 380.446 356.803 379.592 357.657 378.372C358.267 377.518 359.121 376.421 359.609 375.323L361.196 371.664C360.952 369.224 362.782 354.099 363.27 350.684C364.368 343.975 367.053 338.608 374.741 340.315C384.503 342.511 396.095 351.537 397.681 363.857C398.292 377.762 388.041 387.277 378.89 395.327C380.354 397.523 382.306 399.84 383.038 402.768C377.913 397.645 365.711 387.643 352.898 390.57C363.636 390.814 371.812 396.059 377.059 401.426C383.038 407.525 389.506 414.721 389.384 424.114C389.14 435.579 376.571 436.555 367.175 432.53C354.484 426.919 349.725 419.356 347.163 417.893C348.017 418.869 348.139 419.113 348.993 420.21L349.847 421.43C351.19 422.284 351.434 423.016 352.654 424.236C356.437 428.017 364.246 433.628 369.128 435.457C371.934 436.555 375.717 437.043 378.401 438.141C377.913 450.461 364.124 453.632 353.02 448.021C350.58 446.801 345.943 444.728 344.844 442.654C343.014 441.922 339.841 438.507 338.377 436.921C337.279 435.823 333.862 430.09 333.862 430.212C334.35 433.506 335.815 434.848 336.913 437.653C341.55 443.386 344.722 447.045 351.434 450.705C353.386 451.802 356.071 452.656 357.779 453.754C351.556 461.926 340.696 456.681 333.74 451.192C327.395 446.069 322.636 437.165 321.293 428.139L321.171 429.115C320.805 435.701 323.002 437.531 323.49 442.044C324.71 443.386 324.954 444.606 326.419 446.801C332.398 455.584 332.642 453.51 337.767 458.267C337.279 458.755 337.767 458.389 336.913 458.999C328.005 464.732 312.264 452.046 313.85 429.359C311.531 433.994 312.752 439.605 313.484 444.85L309.091 434.36C307.993 429.968 307.383 425.333 307.138 420.698C309.579 419.722 310.677 417.283 312.508 415.575C316.168 412.038 326.907 403.743 331.544 401.548C332.276 402.524 331.178 400.328 331.788 402.768C331.788 402.89 331.91 403.134 331.91 403.134C331.91 403.256 331.91 403.378 332.032 403.499C333.008 398.864 336.059 396.425 338.377 393.863C339.963 392.156 345.21 388.374 348.139 388.252C348.627 387.764 348.383 387.886 349.115 387.521L350.214 386.545C339.475 388.13 335.204 396.181 333.13 397.645C331.666 398.62 328.981 399.84 327.273 400.938C315.802 408.257 309.335 415.819 306.772 417.405C306.162 418.503 302.379 422.528 301.037 423.382L303.722 368.37L304.21 351.171C303.844 352.513 303.6 353.855 303.478 355.319L302.746 358.734C302.746 358.856 302.624 359.222 302.624 359.1C302.624 358.978 302.502 359.344 302.379 359.466C297.865 357.392 292.251 354.465 287.492 352.025C282.611 349.586 277.242 347.146 272.727 344.585C273.581 340.559 278.096 331.167 279.073 327.63C275.534 333.485 271.629 342.877 268.944 350.196C265.772 358.856 264.307 367.638 264.063 377.64C265.772 376.421 266.26 377.152 266.626 375.323C266.748 374.591 266.748 371.42 266.87 370.444C267.602 359.1 269.921 355.319 271.873 346.048C277.242 348 294.326 359.1 300.915 361.174C300.915 371.054 297.987 427.529 298.841 430.7C301.525 430.822 304.576 430.7 307.016 431.676C308.115 438.385 310.311 445.338 314.338 448.631C317.755 451.436 322.026 466.074 334.96 462.536C339.353 461.317 338.987 459.243 343.136 460.219C351.312 462.048 355.583 457.535 359.365 453.632C366.077 453.51 368.395 455.584 374.741 451.924C378.768 449.607 380.598 446.679 382.428 441.556C384.259 440.458 385.967 440.58 388.164 438.995C397.437 432.53 393.167 418.869 388.53 410.818C386.699 407.525 385.601 403.134 384.259 399.596L387.065 396.425L384.259 391.424C385.357 390.082 389.994 386.545 392.312 383.373C412.203 356.904 385.723 336.9 373.032 335.68C362.782 334.705 362.294 347.634 361.684 356.294C360.342 355.563 346.797 332.875 344.722 329.703C335.814 316.164 327.883 303.6 317.877 290.915C311.775 283.108 294.57 262.738 286.516 257.249C286.76 252.614 287.126 248.589 287.004 243.954C286.76 237.489 286.272 238.587 288.469 232.732L299.451 202.726C300.305 200.408 302.135 194.675 303.112 192.723C303.966 191.016 305.43 190.894 307.26 189.796C313.606 186.015 321.782 179.55 323.856 172.597C325.93 165.523 323.002 167.962 328.371 163.449C337.035 156.13 346.553 140.029 346.919 127.344C347.041 122.465 345.821 119.781 344.966 115.512C344.234 111.853 347.407 109.291 347.041 105.266C347.773 104.778 347.529 106.12 347.773 104.046L347.895 103.436L348.871 101.485ZM106.406 166.011C103.966 165.279 98.1086 161.985 95.6681 160.766L105.918 162.961C106.772 163.327 106.406 163.327 106.894 163.571L106.406 166.011ZM340.696 108.193C341.672 109.901 341.794 109.657 340.207 112.219L339.719 113.195C341.672 115.512 342.77 120.269 342.404 124.172L337.279 113.317C337.157 115.39 339.353 119.293 340.207 121.611C340.695 122.953 341.184 124.172 341.672 125.758C342.282 127.466 342.77 128.93 342.038 130.149C338.621 128.442 340.329 128.32 337.645 122.099C337.889 123.685 338.499 125.148 338.621 126.612C338.987 129.539 338.011 126.368 338.377 129.905C338.743 133.809 339.109 135.638 338.865 139.785C338.255 136.126 338.987 129.295 336.303 127.344C334.472 126.002 335.204 127.832 334.228 125.392L332.276 116.488L332.154 116C331.3 117.098 331.3 115.146 331.422 118.562L332.52 125.27C330.567 125.88 332.642 125.148 331.178 125.514C330.933 125.514 330.567 125.88 330.445 125.758L329.957 133.687C330.445 132.467 329.957 129.661 329.713 128.076C329.103 123.563 329.103 126.002 327.639 123.928L326.296 122.831C327.395 127.344 328.249 130.759 328.005 135.516C327.151 134.54 326.907 134.419 326.541 132.467L325.32 126.368C325.32 126.246 325.198 126.124 325.198 126.002L324.832 125.27C319.097 121.977 324.832 118.805 314.216 100.753C317.267 101.119 317.999 100.875 319.097 103.436L324.1 116.61C325.198 113.804 320.195 105.022 319.097 102.705C320.805 101.729 318.853 101.729 322.148 102.826C321.415 100.997 321.049 99.8991 320.439 98.3134C322.88 99.5331 325.686 101.729 327.883 103.314C329.347 104.29 330.079 104.656 331.544 105.754C332.642 106.608 333.74 107.584 334.472 108.315L335.082 107.462C336.669 105.266 336.425 105.876 338.377 105.632C337.523 108.315 338.377 106.486 336.669 108.072L340.696 108.193ZM158.267 109.779C159.609 102.826 173.764 66.9653 177.303 63.9159L178.035 60.9884L184.869 62.6961L174.375 82.3344C165.711 99.5331 157.779 117.586 153.63 136.858C152.898 140.151 152.166 146.982 151.312 149.178C151.068 135.15 155.095 121.855 158.267 109.779ZM152.166 109.047C153.996 99.5331 157.047 90.5068 160.22 81.6025C162.294 75.6257 167.541 60.7445 170.348 56.3533L171.08 54.1577L178.035 55.4995C175.473 62.0862 171.446 69.4048 168.273 76.4795C160.098 94.898 153.264 113.56 150.091 133.931C149.603 136.98 148.993 146.128 148.017 147.592C147.773 140.639 148.261 133.809 148.993 126.978C149.725 120.757 151.434 114.78 152.166 109.047ZM317.511 55.4995C317.511 55.4995 318.243 56.3533 318.243 56.4753L318.365 51.9621C318.609 53.4259 318.853 53.9138 319.219 55.4995C320.683 63.062 330.323 64.7697 327.273 74.7718C325.686 75.3817 328.249 75.8696 326.663 74.4059C326.297 74.04 326.419 73.918 326.419 73.918C326.419 73.918 326.419 74.2839 326.296 75.6257C326.052 78.0652 325.808 78.0652 325.198 80.0168V71.8444C324.832 72.4543 325.076 71.4784 324.71 73.1861L324.466 76.2355C324.344 77.8212 324.344 77.9432 323.734 79.163C323.124 78.0652 323.124 77.0894 323.246 75.3817C320.317 79.163 324.222 76.2355 322.026 76.7234C319.219 77.4553 321.537 69.2829 321.293 65.1357C321.171 67.5752 320.073 72.2103 318.975 74.1619L316.656 72.4543C316.534 65.3796 316.412 60.8665 315.68 54.0358C317.267 55.0116 316.046 54.1577 317.511 55.4995ZM315.924 67.2093C316.046 71.2345 315.07 75.7476 313.24 78.3091L314.094 71.7224C313.85 70.7466 306.894 67.0873 305.308 66.5994C303.478 68.795 300.671 72.6982 297.865 73.552C307.993 64.4038 306.772 49.5226 308.847 47.449C310.921 48.5468 309.823 47.205 310.311 49.4006C310.677 51.1083 309.701 53.7918 310.189 56.4753L310.433 57.3291L311.043 49.7666C314.094 52.0841 315.436 52.3281 315.68 56.1094C315.924 59.7687 315.68 63.5499 315.924 67.2093ZM295.79 62.0862C296.278 59.6467 298.597 56.1094 299.695 52.938C300.793 49.8885 301.037 45.8633 302.257 42.9359C304.454 43.9117 304.088 44.0337 303.356 46.5952C302.013 52.0841 300.549 54.6456 299.573 58.3049C303.478 55.3775 304.576 47.327 305.796 45.4974C308.115 46.5952 307.871 47.0831 307.138 49.7666C305.918 54.2797 303.722 60.5005 301.647 64.4038L295.79 62.0862ZM204.515 44.3996C202.685 43.1798 201.22 40.9842 201.586 38.9106C202.196 36.2271 205.613 37.2029 207.932 37.5689C205.247 38.7886 205.491 37.081 203.051 39.5205C202.929 41.96 203.661 42.5699 204.515 44.3996ZM222.941 41.8381C221.843 40.7403 222.697 41.5941 222.087 40.6183C212.569 24.6393 226.235 25.4932 230.384 30.2503C226.846 29.8843 221.721 28.0547 221.232 32.9338C220.744 36.5931 223.795 39.8864 225.015 43.4238L222.941 41.8381ZM247.224 41.4721C244.295 40.1304 243.197 37.2029 242.099 34.5195C234.899 18.0526 251.129 21.5899 255.278 25.3712C250.397 25.3712 244.905 22.9317 243.441 28.5426C242.221 33.4217 245.882 37.5689 247.224 41.4721Z" fill="black"/>
<path fill-rule="evenodd" clip-rule="evenodd" d="M212.935 428.139L225.503 426.309C254.667 420.576 275.534 410.94 296.644 397.279L297.498 372.517C295.79 373.249 297.376 372.395 295.668 373.615C286.638 379.836 285.54 381.422 273.825 388.13C259.67 396.181 245.516 401.426 229.774 405.207C225.015 406.427 220.256 407.281 215.375 408.013C204.759 409.598 193.533 410.086 182.55 409.598C64.1855 403.621 -12.3246 282.498 32.9469 172.719C43.4411 147.226 56.6199 134.175 58.6943 129.905C69.7986 116.366 73.8255 115.024 80.0488 108.559C82.7333 105.388 86.2721 83.3102 86.8822 79.163C81.5131 81.6025 67.1141 93.1903 63.4533 96.9716C61.6229 98.8013 59.7925 100.021 57.9621 101.729L48.2001 112.097C46.8578 113.438 45.0274 115.878 43.5631 117.586C0.366044 169.548 -11.9585 240.904 12.2025 306.162C19.28 325.068 34.7773 351.537 46.6138 363.613C48.6882 365.687 49.0543 366.906 51.3728 368.98C53.2031 370.566 54.5454 372.273 56.3758 374.103C58.3282 375.933 59.5485 376.909 61.5009 379.104C62.4771 380.202 62.9652 380.446 64.1854 381.422C65.2837 382.276 65.6497 382.885 66.87 383.861C87.8584 401.548 111.043 414.599 139.719 422.65C160.098 428.261 190.97 431.92 212.935 428.139Z" fill="#FEFEFE"/>
<path fill-rule="evenodd" clip-rule="evenodd" d="M343.258 316.408L341.794 316.896C341.672 317.262 348.993 329.826 349.603 330.801C350.702 332.631 352.41 335.68 353.752 337.144C356.681 334.217 369.128 309.089 369.86 303.6L372.544 296.282C374.253 289.695 376.205 283.718 377.669 276.4C387.065 229.804 378.89 182.965 355.217 142.347C354.118 140.517 351.678 136.126 350.092 134.662C348.261 145.884 342.038 152.959 340.696 156.496C343.38 162.229 346.187 167.23 348.871 173.573C362.904 207.605 365.467 244.076 356.681 280.059C354.973 286.89 352.898 293.11 350.58 299.331L343.258 316.408Z" fill="#FEFEFE"/>
<path fill-rule="evenodd" clip-rule="evenodd" d="M240.024 107.096C238.682 108.193 237.34 108.925 236.486 110.267C238.072 109.413 236.852 110.023 238.194 109.901C239.414 108.072 239.292 108.925 244.539 107.584C248.322 106.608 251.007 105.51 251.617 106.486C265.284 105.876 280.781 112.951 286.028 125.27C288.103 130.149 288.469 133.931 289.689 138.932C289.933 132.345 289.933 123.319 287.126 117.952C284.686 113.195 284.808 112.829 278.951 108.925C277.364 107.828 276.876 107.218 275.656 106.242C269.433 101.485 256.742 98.5573 247.712 102.827C245.272 104.168 241.977 106.486 240.024 107.096Z" fill="black"/>
<path fill-rule="evenodd" clip-rule="evenodd" d="M185.113 55.8654L194.631 58.061C193.777 60.3786 192.068 62.3302 191.092 64.7697L197.437 57.6951C191.336 50.9863 193.777 52.938 190.116 48.0589L177.913 48.5468C178.524 48.9127 177.791 48.6688 179.012 49.1567C179.378 49.2787 179.744 49.4006 180.232 49.5226C182.55 50.1325 185.357 50.2545 187.309 51.2303L185.113 55.8654Z" fill="black"/>
<path fill-rule="evenodd" clip-rule="evenodd" d="M268.456 145.03C267.968 140.151 265.894 137.346 263.087 135.028C260.159 132.589 254.911 131.247 250.396 130.515L241 131.735C245.637 131.491 248.688 131.247 253.081 132.467C261.257 135.028 264.307 137.834 268.456 145.03Z" fill="black"/>
<path fill-rule="evenodd" clip-rule="evenodd" d="M244.539 151.495L244.173 153.081C245.271 154.789 246.126 155.399 248.932 155.155C250.397 153.569 251.617 151.007 249.054 149.3C246.98 147.836 242.709 150.154 244.539 151.495Z" fill="black"/>
<path fill-rule="evenodd" clip-rule="evenodd" d="M197.071 138.078L197.559 139.298C196.339 142.103 204.027 142.591 202.318 137.346C201.708 136.492 201.22 135.76 199.756 135.76C197.803 135.76 197.437 136.858 197.071 138.078Z" fill="black"/>
<path fill-rule="evenodd" clip-rule="evenodd" d="M210.25 152.959C209.152 155.764 214.399 160.156 215.863 158.57C217.084 157.35 215.253 155.155 214.521 154.301L211.714 152.593C209.64 152.471 210.738 152.837 210.25 152.959Z" fill="black"/>
<path fill-rule="evenodd" clip-rule="evenodd" d="M196.339 152.837C198.048 153.203 198.414 153.203 199.268 152.227C199.878 151.617 200.61 150.397 199.756 149.544C198.78 148.446 195.485 149.422 196.339 152.837Z" fill="black"/>
<path fill-rule="evenodd" clip-rule="evenodd" d="M148.627 269.935C149.603 270.423 149.847 269.203 148.383 273.228L145.332 282.011C145.332 282.132 145.088 282.498 145.088 282.62L144.234 286.036C144.112 286.402 144.112 286.646 144.112 286.89C144.112 287.012 144.112 287.134 144.112 287.134C144.112 287.256 144.112 287.378 143.99 287.378C138.987 309.577 140.817 326.288 143.624 348.244C144.234 353.123 145.943 358.612 146.553 363.247C147.285 369.224 152.898 386.911 153.752 391.79C162.782 393.497 172.788 395.937 182.672 395.937C201.83 396.059 222.941 394.717 241.245 387.886C244.783 386.545 262.355 380.324 264.673 378.128C264.918 368.126 266.382 359.344 269.555 350.684C272.239 343.365 276.144 333.973 279.683 328.118C278.706 331.655 274.191 341.047 273.337 345.073C277.73 347.756 283.221 350.074 288.102 352.513C292.983 354.953 298.475 357.88 302.99 359.954C303.112 359.832 303.112 359.466 303.234 359.588C303.234 359.71 303.356 359.344 303.356 359.222L304.088 355.807C304.332 354.465 304.576 353.001 304.82 351.659L304.332 368.858C305.186 369.712 304.454 368.37 304.942 369.956L306.65 412.282C306.772 416.673 306.162 416.185 307.504 417.893C310.189 416.307 316.534 408.745 328.005 401.426C329.713 400.328 332.398 399.108 333.862 398.132C336.059 396.669 340.329 388.618 350.946 387.033L352.898 384.959C353.02 384.837 353.142 384.837 353.264 384.715L353.996 384.227C356.681 379.836 360.342 374.103 361.196 368.004C360.22 367.272 360.586 367.028 359.121 364.467L338.865 331.533C336.425 327.02 338.865 329.338 334.838 324.946L327.151 313.846C326.174 312.627 325.808 311.407 325.076 310.309L315.07 296.526C310.921 290.549 313.24 292.866 309.335 288.597L307.504 286.646L307.382 286.524L302.99 281.401C302.379 280.791 302.135 280.425 301.647 279.693C299.207 276.278 301.891 278.473 299.939 277.253L291.397 268.349C289.445 266.276 287.736 263.47 285.174 262.25C283.221 263.47 281.757 264.934 279.683 265.91C283.954 260.299 285.418 265.3 286.394 254.322C286.882 248.589 286.76 242.734 286.394 237.001C276.144 240.172 271.385 242.978 258.206 246.393C246.126 249.443 237.828 249.809 225.259 250.784L215.497 272.008C216.229 272.74 216.229 272.618 215.863 275.546C215.741 276.522 215.253 278.473 215.131 278.961C214.887 280.181 213.789 284.328 213.789 285.914C218.182 285.67 225.381 285.67 228.676 285.304L241.611 284.45C240.878 284.45 238.926 284.572 238.316 284.694C236.364 285.06 236.119 286.036 235.997 285.914C235.875 285.792 235.753 286.158 235.631 286.28C230.994 288.475 210.86 292.013 204.027 292.622C202.196 316.286 209.762 340.925 215.497 363.125C216.717 367.638 216.717 366.175 211.104 373.981L197.681 393.253L174.252 368.98C173.398 366.662 180.354 325.434 181.33 319.945C183.77 307.26 189.384 287.256 194.753 277.497C194.875 276.887 194.631 277.375 195.119 276.278C196.095 274.326 195.119 276.156 195.729 275.302L195.607 272.74C193.288 274.692 192.678 280.425 190.238 284.45C188.896 282.011 185.601 269.203 185.479 266.154L189.262 277.497C192.068 273.594 196.461 261.274 198.658 256.029C199.756 253.468 199.878 253.346 198.902 250.784C198.17 249.077 197.803 246.271 196.217 245.295C192.922 243.344 187.187 242.978 179.988 238.221C177.791 236.879 177.303 235.659 175.717 234.44C174.13 233.22 166.687 231.146 164.246 230.292C160.83 229.073 156.071 227.243 152.288 226.511C146.675 225.413 143.136 226.389 138.377 226.023C141.306 225.291 142.892 224.803 146.431 224.681C141.794 222.242 134.594 223.096 129.469 223.584C133.74 222.974 134.228 221.876 140.207 222.12C139.231 219.436 111.775 175.281 108.237 169.67C106.528 166.864 106.65 167.352 103.844 165.889C94.3257 161.131 79.8046 155.642 71.995 164.303C72.3611 168.45 88.8345 234.927 90.2988 241.026C93.4715 254.2 92.8614 248.833 105.918 260.665L138.743 287.987L142.526 279.083C143.746 276.156 145.21 273.106 146.675 270.667C148.505 267.617 149.725 265.788 151.678 263.104C152.41 262.006 153.386 260.665 154.24 259.567L157.657 256.151C154.606 260.909 150.824 264.324 148.627 269.935Z" fill="#F9E8D8"/>
<path fill-rule="evenodd" clip-rule="evenodd" d="M211.348 105.022C215.863 94.5321 216.596 92.9464 223.063 83.4322C228.31 75.7476 227.09 75.9916 234.899 77.6993C236.974 78.1872 239.414 78.6751 240.879 79.8949C244.905 80.1388 254.79 86.1157 256.376 86.4816C242.709 78.0652 236.73 76.3575 221.843 75.8696C221.721 75.8696 220.378 75.7476 220.256 75.7476C218.06 74.8938 219.89 76.2356 218.304 74.2839H230.628C231.361 72.9422 234.411 69.6488 235.998 68.551C245.149 68.673 254.79 73.796 261.623 77.2114C257.108 73.5521 248.81 70.2587 243.319 68.795C233.557 66.2334 228.554 67.3312 218.426 67.4532L220.5 66.1115C220.988 65.9895 222.331 65.7455 223.185 65.6236C232.581 64.2818 234.045 65.7455 237.096 65.7455C239.17 65.7455 238.926 65.1357 239.292 64.4038C235.265 63.306 230.75 60.0126 228.066 57.817C224.649 55.1336 220.378 50.0105 218.792 49.5226C217.084 52.572 223.673 61.8423 224.649 63.9159C218.182 63.428 214.887 59.5247 211.104 57.2072C212.203 59.4027 213.057 59.7687 214.399 61.5983C210.006 61.3544 208.542 60.2566 205.247 58.7929C200.61 62.3302 193.045 71.3565 189.994 76.3575C186.577 81.8465 181.452 92.0925 180.354 99.5331C182.794 98.1914 183.527 96.4837 187.553 95.142C190.726 94.0442 194.509 93.9222 197.926 94.5321C201.22 95.142 204.149 96.4837 206.223 98.3134C211.47 102.827 209.64 103.07 211.348 105.022Z" fill="#F9E8D8"/>
<path fill-rule="evenodd" clip-rule="evenodd" d="M189.506 124.416C190.604 122.587 192.556 121.489 194.753 120.757C201.952 118.318 210.372 121.245 212.081 128.076C211.348 125.27 207.077 122.099 203.173 121.367C197.315 120.147 193.411 122.099 189.506 124.416ZM181.574 137.956C182.062 137.956 184.747 138.444 185.601 136.37C184.991 135.394 185.113 137.468 185.601 134.297C185.723 134.175 185.723 133.931 185.723 134.053L190.238 128.076C195.363 124.538 194.021 124.416 198.17 124.294C200.61 124.172 205.369 125.148 207.199 126.856C208.542 127.954 209.396 129.417 210.982 129.905C212.569 130.393 211.226 128.808 212.081 131.003C215.009 128.198 213.789 121.367 213.545 117.342C212.447 116.366 213.301 116.244 212.569 114.292C212.203 112.463 210.494 109.047 209.64 107.584C208.664 107.218 210.494 109.169 207.81 106.608C204.881 103.802 203.661 101.851 198.414 100.265C191.458 98.0694 186.577 99.4112 181.94 102.949C178.89 105.266 179.256 104.656 178.768 109.779C178.157 116.976 178.768 132.955 181.574 137.956Z" fill="#F9E8D8"/>
<path fill-rule="evenodd" clip-rule="evenodd" d="M347.407 395.327C345.577 397.401 342.648 399.352 343.38 404.963C343.502 406.305 344.6 409.232 345.211 410.208C345.699 411.184 346.187 411.55 346.675 412.282C347.285 413.38 347.285 413.624 347.651 414.721L350.092 414.355C353.142 413.258 355.705 409.598 357.535 406.427C359.976 402.158 360.952 399.108 359.61 393.619C354.484 393.619 351.19 393.375 347.407 395.327Z" fill="#F9E8D8"/>
<path fill-rule="evenodd" clip-rule="evenodd" d="M177.791 141.737L177.425 142.347C174.253 146.494 170.348 147.958 168.029 155.642C165.955 162.595 166.931 170.402 168.273 177.476C170.836 191.626 173.52 203.701 174.985 218.705C177.303 215.533 170.836 179.428 170.592 176.257C169.86 168.694 169.494 161.619 171.69 154.667C172.666 151.495 173.887 149.178 175.839 146.738L181.452 140.395L179.988 139.907C178.646 139.785 180.354 138.688 178.523 140.273C177.669 141.127 178.035 140.517 177.791 141.737Z" fill="#F9E8D8"/>
<path fill-rule="evenodd" clip-rule="evenodd" d="M349.481 420.82C348.627 419.722 348.627 419.478 347.651 418.503C345.699 417.771 347.651 418.869 346.553 417.771C346.431 417.649 346.187 417.283 346.065 417.161C346.065 417.161 345.455 415.819 345.333 415.697L342.526 410.33C338.133 411.306 335.571 413.746 335.448 418.625C335.326 422.528 337.767 427.651 339.963 429.481C344.112 428.627 347.529 422.894 348.749 421.552L349.481 420.82Z" fill="#F9E8D8"/>
<path fill-rule="evenodd" clip-rule="evenodd" d="M337.401 438.263C336.303 435.457 334.838 434.238 334.35 430.822L332.276 423.992C324.588 426.065 327.151 439.483 329.469 440.946C331.544 442.41 334.594 438.873 337.401 438.263Z" fill="#F9E8D8"/>
<path fill-rule="evenodd" clip-rule="evenodd" d="M242.587 61.4763C244.295 60.8665 243.807 60.8665 245.271 59.7687C246.858 58.4269 247.102 58.9148 247.59 57.0852C245.882 54.7676 243.685 52.572 241.611 50.0105C240.634 48.7907 239.658 47.449 238.926 46.2292C236.608 42.8139 237.584 43.1798 235.509 43.0578C235.387 48.4248 239.902 58.5489 242.587 61.4763Z" fill="#F9E8D8"/>
<path fill-rule="evenodd" clip-rule="evenodd" d="M306.772 189.796C311.287 188.454 320.439 179.916 322.27 171.987C324.344 162.473 323.124 150.032 309.335 153.081C311.165 155.155 315.924 151.495 319.341 158.326C321.171 161.985 320.927 168.084 320.073 172.231C318.121 182.599 307.749 188.088 307.016 188.942C306.162 189.918 305.918 188.698 306.772 189.796Z" fill="#F9E8D8"/>
<path fill-rule="evenodd" clip-rule="evenodd" d="M323.978 442.776C323.49 438.263 321.293 436.555 321.659 429.846C312.874 433.384 318.975 442.776 318.487 445.216C320.195 444.606 321.782 444.85 323.978 442.776Z" fill="#F9E8D8"/>
<path fill-rule="evenodd" clip-rule="evenodd" d="M215.375 126.612C215.009 130.637 212.935 134.419 211.104 136.736C210.128 137.956 208.786 139.542 207.81 140.517C206.711 141.493 205.003 142.347 204.271 143.567C204.271 144.421 204.027 144.177 205.125 144.055L212.081 139.176C213.301 138.322 213.545 137.59 214.155 136.614C217.206 131.613 217.206 130.271 215.985 123.197C216.962 124.05 216.107 125.636 215.375 126.612Z" fill="#F9E8D8"/>
<path fill-rule="evenodd" clip-rule="evenodd" d="M221.599 161.131L222.819 159.668C223.795 155.399 220.744 152.837 216.473 151.617C214.521 151.007 212.691 150.641 210.372 150.641C212.569 151.129 215.131 152.593 217.084 154.301C219.89 156.984 219.158 155.52 220.622 159.058L221.599 161.131Z" fill="#F9E8D8"/>
<path fill-rule="evenodd" clip-rule="evenodd" d="M205.491 278.595L204.149 287.134L209.64 277.619L205.491 278.595Z" fill="#F9E8D8"/>
<path fill-rule="evenodd" clip-rule="evenodd" d="M233.557 190.528L234.289 189.796C236.486 189.308 237.706 188.576 239.536 187.357C241.001 186.381 243.319 185.283 243.685 183.941C242.221 183.453 232.581 184.429 229.53 184.307C220.134 184.063 211.592 182.599 202.929 179.306L193.533 175.769C192.434 174.915 193.045 175.647 192.434 174.549L187.431 171.987C187.797 179.428 189.75 179.55 191.824 182.843C193.045 182.355 192.312 183.331 192.922 181.746C193.167 184.917 193.655 184.429 196.339 185.893C198.414 187.113 199.39 188.332 200.61 186.137C200.732 188.21 200 188.21 207.444 189.918L210.372 190.406C210.494 190.406 210.616 190.406 210.86 190.528C210.982 190.528 211.104 190.528 211.348 190.65C215.375 191.504 220.866 192.967 224.893 191.87L225.747 191.504C226.724 191.382 226.724 191.992 229.164 191.504C230.994 191.016 231.727 190.65 233.557 190.528Z" fill="white"/>
<path fill-rule="evenodd" clip-rule="evenodd" d="M237.95 153.447V153.081C238.316 148.812 238.316 146.86 241.123 144.421C245.76 140.273 253.569 141.249 256.254 148.08C257.718 151.861 255.888 155.033 254.667 157.838C258.816 157.228 259.67 157.35 263.575 155.642L266.138 154.179C267.236 147.958 263.087 143.201 260.281 140.639C257.474 138.078 251.373 133.931 246.492 134.54C240.268 134.54 233.069 135.028 229.042 141.005C226.724 144.421 232.215 149.178 234.777 151.129L237.95 153.447Z" fill="white"/>
<path fill-rule="evenodd" clip-rule="evenodd" d="M284.93 262.494C287.492 263.714 289.201 266.519 291.153 268.593L299.695 277.497C301.647 278.717 298.963 276.522 301.403 279.937C301.891 280.669 302.257 281.035 302.746 281.645L307.138 286.768L307.26 286.89L309.091 288.841C312.996 293.11 310.555 290.793 314.826 296.77L324.832 310.553C325.564 311.651 325.93 312.871 326.907 314.09L334.594 325.19C338.499 329.582 336.181 327.264 338.621 331.777L358.877 364.711C360.342 367.272 360.098 367.638 360.952 368.248C362.904 361.783 357.779 357.27 352.288 348C350.214 344.585 348.383 341.779 346.553 338.608C344.844 335.68 341.55 332.265 341.062 329.094C339.597 328.118 338.743 326.776 338.255 324.946C337.035 324.093 328.127 310.431 326.541 308.114C323.124 303.235 312.019 288.109 307.993 283.84C303.234 278.839 290.665 263.714 286.272 261.518L284.93 262.494Z" fill="white"/>
<path fill-rule="evenodd" clip-rule="evenodd" d="M185.601 134.419L191.946 138.932C191.946 138.81 192.068 138.688 192.068 138.566L192.434 137.834C192.434 137.712 192.556 137.59 192.678 137.468C194.143 130.393 202.196 129.661 205.979 133.443C207.565 135.15 207.565 137.346 208.542 138.444C209.884 136.858 212.202 133.687 212.202 131.247C211.348 128.93 212.691 130.637 211.104 130.149C209.518 129.661 208.664 128.198 207.321 127.1C197.925 119.659 189.75 127.466 185.845 134.297C185.723 134.053 185.723 134.297 185.601 134.419Z" fill="white"/>
<path fill-rule="evenodd" clip-rule="evenodd" d="M307.26 418.259C305.918 416.551 306.528 416.917 306.406 412.648L304.698 370.322C304.332 368.736 304.942 370.078 304.088 369.224L301.403 424.236C302.99 423.382 306.65 419.356 307.26 418.259Z" fill="white"/>
<path fill-rule="evenodd" clip-rule="evenodd" d="M195.973 197.846C196.827 199.676 195.607 198.212 197.315 199.432C200.61 201.994 221.232 206.873 226.968 202.238V201.994C225.137 201.262 222.941 200.286 220.866 199.676L216.473 198.944C209.152 197.359 208.542 197.359 200.122 197.603L195.973 197.846Z" fill="white"/>
<path fill-rule="evenodd" clip-rule="evenodd" d="M235.387 286.402C235.509 286.28 235.631 285.914 235.753 286.036C235.875 286.158 236.12 285.182 238.072 284.816C238.682 284.694 240.756 284.572 241.367 284.572L228.432 285.426C225.137 285.67 217.938 285.67 213.545 286.036C213.423 284.45 214.643 280.303 214.887 279.083C215.009 278.595 215.375 276.644 215.619 275.668C216.107 272.74 215.985 272.984 215.253 272.13L207.443 289.207C216.717 290.061 227.09 287.012 235.387 286.402Z" fill="white"/>
<path fill-rule="evenodd" clip-rule="evenodd" d="M195.607 275.546C194.997 276.278 195.973 274.57 194.997 276.522C194.387 277.619 194.753 277.131 194.631 277.741C194.631 279.693 192.8 283.352 192.068 285.67C188.896 294.818 186.943 300.429 185.235 310.675C183.038 323.361 181.574 335.192 179.988 348.488C182.794 348.976 182.306 348.976 182.062 352.025C181.94 353.611 182.062 354.953 181.33 356.294C179.5 354.953 180.72 355.197 179.988 352.269C179.5 353.001 179.866 351.903 179.5 353.245C179.378 353.611 179.378 354.221 179.256 354.709L178.157 364.833C178.767 364.101 179.012 365.687 179.134 362.759C182.184 364.345 179.866 364.955 180.842 368.126C181.33 369.834 182.55 370.2 183.404 371.907L181.574 372.151L188.652 380.568C189.75 381.544 189.628 381.422 190.36 382.397C190.482 382.519 190.482 382.641 190.604 382.641C190.604 382.763 190.726 382.885 190.848 383.007L196.339 388.618C198.048 387.155 198.536 385.691 200.122 383.739C201.464 382.032 202.44 380.69 203.783 378.86C206.711 374.835 208.542 372.029 211.226 368.614C213.545 365.687 211.348 361.661 209.762 355.075C208.542 350.196 207.688 345.316 206.467 340.681C204.271 331.899 202.684 318.969 202.318 309.333C201.586 292.744 202.562 290.793 205.125 276.4C202.318 276.156 199.756 276.156 197.803 274.204L197.437 273.716C196.583 272.862 198.292 273.228 196.949 273.472C200.366 270.301 196.339 273.96 205.003 273.96L211.836 273.35C212.569 272.74 211.958 273.594 212.935 272.252L217.572 262.86C214.887 259.079 207.443 257.127 201.22 257.493L196.095 270.545C194.387 274.082 198.414 273.35 195.607 275.546Z" fill="#0045AD"/>
<path fill-rule="evenodd" clip-rule="evenodd" d="M200.244 197.603C208.664 197.359 209.274 197.237 216.595 198.944L220.988 199.676C223.063 200.286 225.259 201.262 227.09 201.994C228.798 201.14 228.92 199.432 227.578 197.481C223.795 191.87 213.911 194.553 212.691 194.675C213.667 194.553 215.985 193.089 216.839 192.845C213.057 192.48 210.372 192.48 206.711 193.089C203.417 193.699 200.61 194.553 200.244 197.603Z" fill="#C27068"/>
<path fill-rule="evenodd" clip-rule="evenodd" d="M130.812 95.02L130.934 94.5321H130.201C130.567 94.0442 130.323 94.6541 130.567 93.9222H129.957L129.835 94.776C129.957 94.776 129.957 94.898 130.201 94.898C130.445 94.898 130.689 94.898 130.812 95.02Z" fill="#FCE737"/>
<path fill-rule="evenodd" clip-rule="evenodd" d="M124.588 99.0452L125.076 98.9233L125.686 99.0452V100.021C124.71 99.8991 124.588 99.7771 124.588 99.0452ZM124.588 98.0694L124.71 98.1914C124.71 98.1914 124.832 98.1914 124.832 98.3134C124.832 98.3134 124.832 98.3134 124.954 98.4353L124.222 99.1672C124.1 99.5331 124.344 99.8991 124.466 100.265C125.564 100.509 125.93 100.265 125.93 99.0452H127.029L127.273 98.5573C127.395 98.3134 127.395 98.3134 127.639 98.3134C128.249 98.3134 128.005 98.5573 128.005 98.5573C128.249 99.0452 127.761 98.8013 128.249 99.0452C128.493 98.5573 128.127 98.5573 128.615 98.3134L128.371 98.1914C127.517 97.7035 127.151 98.3134 126.907 98.6793C126.907 98.6793 126.907 98.4353 126.785 98.4353L126.541 98.0694C126.541 98.0694 126.541 98.1914 126.419 98.1914C126.052 98.8013 126.419 98.6793 126.052 98.6793V98.5573C125.93 98.3134 125.93 98.3134 125.93 98.1914H125.442C124.954 98.1914 124.832 98.0694 124.588 97.5815H124.344C124.466 98.0694 124.466 97.4595 124.588 98.0694Z" fill="#FFBB34"/>
<path fill-rule="evenodd" clip-rule="evenodd" d="M99.4508 116.244C100.061 117.098 100.671 117.708 101.403 118.562C101.769 118.927 102.135 119.293 102.501 119.659C102.745 119.903 103.478 120.391 103.6 120.635C103.844 120.757 103.844 120.757 104.088 120.757C104.088 119.781 103.6 120.635 103.112 119.415C102.745 118.562 102.257 118.927 102.257 118.074C102.257 117.83 102.257 117.952 102.013 117.952C101.647 118.074 101.647 117.708 101.281 117.464C101.159 117.342 100.671 117.708 100.549 116.61C99.8169 116.61 100.305 116.732 100.061 116.366C99.9389 116.122 100.061 116 99.9389 115.756C99.5728 116.122 99.6949 116.122 99.4508 116.244Z" fill="#DB9B2B"/>
<path fill-rule="evenodd" clip-rule="evenodd" d="M105.552 117.464C105.552 117.464 105.552 117.342 105.552 117.464C105.674 117.464 105.674 117.22 106.162 117.098L105.186 115.756C104.576 115.512 104.82 115.756 104.454 115.39C104.088 116.122 104.576 116.122 104.942 116.732C105.43 117.464 105.552 116.732 105.552 117.464Z" fill="#DB9B2B"/>
<path fill-rule="evenodd" clip-rule="evenodd" d="M104.088 116.366C104.82 116.732 104.942 117.22 105.552 117.586C105.552 116.854 105.43 117.464 104.942 116.732C104.576 116.122 104.088 116.244 104.454 115.39C103.356 113.438 102.379 113.56 100.549 108.803C99.5729 106.12 99.0848 102.583 99.4509 99.2892C99.6949 97.5815 99.939 96.3617 100.427 94.898C101.159 92.5805 101.891 91.4827 103.112 89.531C103.478 88.9212 103.844 88.5552 104.21 87.9453C104.82 87.0915 105.918 85.9937 106.894 85.2618C112.142 80.8707 119.829 78.6751 127.395 81.2366C129.835 82.0904 129.103 81.7245 131.055 82.9443C132.52 83.7981 134.716 85.7498 135.937 87.2135L136.303 87.8234C136.303 87.9453 136.303 87.8234 136.303 87.9453L137.889 90.2629L138.255 90.1409L137.767 89.531C137.645 89.0431 137.523 89.0431 137.279 88.6772L137.035 88.1893C136.547 87.5794 136.303 87.0915 135.814 86.6036C132.764 83.4322 129.835 81.2366 125.198 80.0168C117.145 77.9432 110.433 80.2608 105.308 84.53C101.403 87.8234 97.9866 93.4343 97.7425 100.021C97.6205 103.68 98.3526 106.974 99.4509 109.779C100.183 111.487 101.769 114.048 103.112 115.39L104.088 116.366Z" fill="#DB9B2B"/>
<path fill-rule="evenodd" clip-rule="evenodd" d="M103.356 119.171C102.99 118.927 102.623 118.318 102.135 118.196C102.013 119.049 102.623 118.684 102.99 119.537C103.478 120.757 103.966 119.903 103.966 120.879C104.454 121.733 108.115 123.807 108.969 124.172C115.558 127.222 123.246 127.344 129.591 124.294C133.74 122.343 136.669 119.903 138.865 116.854C140.94 114.048 143.38 109.657 143.746 104.9C143.38 105.144 143.502 105.144 143.38 105.754C142.648 109.657 140.818 113.195 138.377 116.244C136.547 118.562 135.57 118.927 134.106 120.269L132.764 121.123C131.422 121.977 130.445 122.587 128.737 123.197C128.127 123.441 127.883 123.563 127.151 123.807C126.663 123.929 126.052 124.172 125.564 124.294C122.026 125.148 117.755 125.392 114.338 124.538C111.531 123.929 107.871 122.465 105.552 120.757L103.356 119.171Z" fill="#DB9B2B"/>
<path fill-rule="evenodd" clip-rule="evenodd" d="M137.889 90.0189C140.574 93.8002 141.428 100.509 140.329 105.266C139.231 110.145 136.913 114.048 133.13 117.22C131.544 118.562 132.032 118.074 130.811 118.927C129.957 119.537 128.859 120.025 127.761 120.513C122.27 122.831 117.389 122.587 111.898 120.757C110.433 120.269 106.772 117.952 106.162 116.976C105.674 117.098 105.674 117.464 105.552 117.342C105.552 117.342 105.552 117.342 105.43 117.464L105.796 117.83C108.115 119.415 108.847 120.147 111.776 121.245C112.02 121.367 113.24 121.611 113.606 121.733C115.436 122.343 118.121 122.587 120.073 122.465C133.862 121.977 143.136 109.779 140.818 96.3617C140.574 94.776 139.719 92.5805 138.987 91.1167C138.743 90.6288 138.255 90.0189 138.133 89.531H137.889C137.645 89.531 137.889 89.531 137.767 89.653C137.767 89.775 137.889 89.897 137.889 90.0189Z" fill="#DB9B2B"/>
<path fill-rule="evenodd" clip-rule="evenodd" d="M130.934 88.6772V91.6046C128.981 91.7266 109.335 91.4827 108.481 91.7266L108.603 92.2145H131.544V88.5552L130.934 88.6772Z" fill="#DB9B2B"/>
<path fill-rule="evenodd" clip-rule="evenodd" d="M118.243 117.342V117.952H121.904V98.0694H124.71C124.466 97.4595 124.466 98.0694 124.588 97.4595H121.294V117.342H118.243Z" fill="#DB9B2B"/>
<path fill-rule="evenodd" clip-rule="evenodd" d="M99.4508 116.244C99.6949 116.122 99.5729 116.122 99.8169 116C99.9389 116.244 99.8169 116.366 99.9389 116.61C100.183 116.976 99.5729 116.854 100.427 116.854C100.549 117.952 100.915 117.708 101.159 117.708C101.647 117.952 101.525 118.318 101.891 118.196C101.769 117.83 102.013 118.196 101.769 117.83C101.159 117.586 100.427 116.244 100.061 115.878C98.8407 114.536 98.5966 113.682 97.7425 112.219C96.1561 109.535 95.7901 106.242 95.424 105.51C95.302 105.144 95.424 105.388 95.1799 105.144C95.302 106.852 96.1561 109.901 96.7663 111.365C97.0103 111.853 97.1323 112.219 97.3764 112.707C97.4984 112.951 97.4984 113.073 97.6204 113.317C97.9865 114.048 98.9627 115.512 99.4508 116.244Z" fill="#DB9B2B"/>
<path fill-rule="evenodd" clip-rule="evenodd" d="M117.389 98.0694C117.633 97.8254 117.511 98.3134 117.633 97.5815C117.633 97.5815 117.511 97.4595 117.511 97.5815H117.389L116.535 97.4595C113.972 97.4595 111.043 97.3375 108.481 97.4595V97.9474C109.579 98.1914 115.924 98.0694 117.389 98.0694Z" fill="#DB9B2B"/>
<path fill-rule="evenodd" clip-rule="evenodd" d="M130.933 95.3859V97.3375C128.737 97.3375 126.541 97.3375 124.344 97.3375C124.466 97.5815 123.734 97.9474 123.978 97.9474C125.442 98.1914 126.785 97.9474 128.371 97.9474H131.666V96.9716V94.1661H131.056L130.933 95.3859Z" fill="#DB9B2B"/>
<path fill-rule="evenodd" clip-rule="evenodd" d="M131.544 98.0694H128.249H124.588H121.782V117.952H118.121V117.342L117.267 117.22V97.9474C115.802 98.0694 109.457 98.1914 108.359 97.8255V97.3376C107.871 97.3376 107.871 97.2156 107.505 97.0936C107.627 96.6057 107.627 97.2156 107.749 96.3617C107.749 96.1178 107.749 95.7519 107.749 95.5079C107.749 93.8002 107.383 93.6783 109.091 93.6783H130.812V94.4101H131.422L131.544 98.0694ZM130.934 88.6772H131.544V92.3365H108.603L108.481 91.8486L107.627 91.4827C107.627 90.8728 107.627 91.4827 107.749 91.1167C107.871 90.8728 107.871 91.1167 107.871 90.8728C107.871 90.8728 107.749 88.9212 107.871 87.9453C109.091 87.5794 117.389 87.8234 119.341 87.8234H130.812L130.934 88.6772ZM104.332 115.268C104.698 115.634 104.576 115.512 105.064 115.634L106.162 117.098C106.773 118.074 110.311 120.391 111.898 120.879C117.267 122.587 122.27 122.953 127.761 120.635C128.981 120.147 129.957 119.659 130.812 119.049C132.032 118.196 131.666 118.684 133.13 117.342C137.035 114.048 139.231 110.267 140.33 105.388C141.428 100.753 140.574 93.9222 137.889 90.1409C137.157 89.1651 136.669 88.3113 136.181 87.5794C135.082 85.9937 132.52 83.6762 130.934 82.8223C128.859 81.7245 129.713 81.9685 127.273 81.1146C119.707 78.5531 112.02 80.7487 106.773 85.1399C105.796 85.8717 104.698 86.9695 104.088 87.8234C103.722 88.3113 103.356 88.7992 102.99 89.4091C101.769 91.3607 101.037 92.4585 100.305 94.776C99.817 96.2398 99.573 97.4595 99.3289 99.1672C98.9629 102.339 99.451 105.998 100.427 108.681C102.258 113.439 103.234 113.317 104.332 115.268Z" fill="#FFA166" stroke="#FFBB34" stroke-width="0.2268" stroke-miterlimit="10"/>
<path fill-rule="evenodd" clip-rule="evenodd" d="M135.57 89.653C135.57 90.7508 136.059 90.5069 136.791 90.2629L136.669 89.531C136.303 89.2871 135.937 89.4091 135.57 89.653Z" fill="#FFBB34"/>
<path fill-rule="evenodd" clip-rule="evenodd" d="M132.886 92.8244H133.862C133.862 91.7266 133.984 91.7266 133.008 91.7266C132.764 92.3365 132.764 92.3365 132.886 92.8244Z" fill="#FFBB34"/>
<path fill-rule="evenodd" clip-rule="evenodd" d="M124.588 99.0452C124.588 99.8991 124.71 99.8991 125.686 99.8991V98.9232L125.076 98.8013C125.076 98.9232 124.588 98.9232 124.588 99.0452Z" fill="#FFBB34"/>
<path fill-rule="evenodd" clip-rule="evenodd" d="M101.769 83.7981L100.427 85.2618C100.427 85.3838 98.4747 88.0673 97.9866 89.0431C94.9359 94.6541 94.8139 98.4353 95.18 104.9C95.424 105.144 95.302 104.9 95.424 105.266C95.7901 106.12 96.0341 109.413 97.7425 111.975C98.5967 113.438 98.9628 114.17 100.061 115.634C100.427 116 101.281 117.342 101.769 117.586C102.135 117.342 101.891 117.464 102.257 117.586L102.624 117.708H102.746C103.478 117.708 102.99 117.22 103.234 116.854C103.6 116.488 103.722 116.61 103.966 116.122L102.99 115.024C101.647 113.682 100.061 111.121 99.3288 109.413C98.1086 106.608 97.3764 103.314 97.6205 99.6551C97.8645 93.0684 101.281 87.4574 105.186 84.1641C110.311 79.8949 117.023 77.6993 125.076 79.6509C129.713 80.8707 132.642 83.0663 135.692 86.2377C136.181 86.7256 136.425 87.0915 136.913 87.8234L137.157 88.3113C137.279 88.5552 137.523 89.0431 137.767 89.4091C138.011 89.775 138.133 90.2629 138.377 90.2629C138.987 90.5069 139.353 89.0431 139.353 87.7014V87.5794L139.475 87.2135C139.597 87.3355 139.963 87.8234 140.085 87.9453C140.573 88.6772 140.085 88.4332 140.818 88.7992L140.207 87.7014C139.841 86.8475 138.133 84.8959 137.523 84.1641C136.059 82.4564 133.74 80.7487 131.788 79.5289C125.32 75.7477 116.779 75.0158 109.823 78.1872C106.65 79.6509 104.576 80.9927 102.135 83.3102L101.769 83.7981Z" fill="#FEDD06"/>
<path fill-rule="evenodd" clip-rule="evenodd" d="M138.255 89.653C138.255 90.1409 138.743 90.7508 138.987 91.2387C139.719 92.7024 140.574 94.898 140.818 96.4837C143.258 109.901 133.862 122.099 120.073 122.587C118.121 122.709 115.436 122.465 113.606 121.855C113.24 121.733 112.142 121.489 111.775 121.367C108.847 120.147 108.115 119.537 105.796 117.952C104.576 117.83 105.186 117.952 104.21 118.562L103.356 119.293L105.674 121.123C107.993 122.831 111.653 124.172 114.46 124.904C117.877 125.636 122.148 125.514 125.686 124.66C126.175 124.538 126.785 124.416 127.273 124.172C127.883 123.929 128.249 123.807 128.859 123.563C130.567 122.953 131.544 122.343 132.886 121.489L134.228 120.635C135.693 119.171 136.547 118.927 138.499 116.61C140.94 113.56 142.77 110.023 143.502 106.12C143.624 105.51 143.502 105.51 143.868 105.266C144.356 102.949 144.112 98.5573 143.624 96.2398C143.38 94.776 143.014 93.6782 142.526 92.3365C142.282 91.6046 141.306 89.4091 140.94 89.0431C140.329 88.6772 140.696 88.9212 140.207 88.1893C140.085 88.0673 139.719 87.5794 139.597 87.4574L139.475 87.8234V87.9453C139.475 88.9212 138.743 88.9212 137.889 88.5552C137.767 88.5552 137.889 88.6772 137.767 88.6772L138.011 89.1651C138.255 89.4091 138.133 89.0431 138.255 89.653ZM139.109 88.3113L138.865 87.4574C138.499 87.4574 138.377 87.4574 138.255 87.8234C138.011 88.1893 138.133 88.1893 138.133 88.6772L139.109 88.3113Z" fill="#FEDD06"/>
<path fill-rule="evenodd" clip-rule="evenodd" d="M108.481 97.4595C111.043 97.3376 113.85 97.4595 116.534 97.4595L117.389 97.5815C117.389 97.5815 117.511 97.7035 117.511 97.5815H117.633C117.633 98.1914 117.755 97.8255 117.389 98.0694V117.342L118.243 117.464H121.171V97.5815H124.466H124.71H130.934V93.9222H109.213C107.505 93.9222 107.871 93.9222 107.871 95.7519C107.871 95.9958 107.871 96.3617 107.871 96.6057C107.749 97.4595 107.749 96.8497 107.627 97.3376C107.993 97.3376 107.993 97.3376 108.481 97.4595Z" fill="#FEDD06"/>
<path fill-rule="evenodd" clip-rule="evenodd" d="M108.481 91.6047C109.335 91.3607 128.981 91.6047 130.934 91.4827V88.5552V87.8234H119.463C117.511 87.8234 109.213 87.5794 107.993 87.9453C107.871 88.9212 107.993 90.7508 107.993 90.8728C107.993 91.1167 107.993 90.9948 107.871 91.1167C107.749 91.3607 107.749 90.7508 107.749 91.4827L108.481 91.6047Z" fill="#FEDD06"/>
<path fill-rule="evenodd" clip-rule="evenodd" d="M128.737 95.7519C129.103 96.3617 129.469 96.3617 129.957 95.8738L129.713 95.2639C129.103 95.2639 128.981 95.3859 128.737 95.7519Z" fill="#FEDD06"/>
<path fill-rule="evenodd" clip-rule="evenodd" d="M127.273 97.0936C127.761 97.4595 128.127 97.3375 128.493 96.8496C127.761 96.2397 127.151 96.6057 127.273 97.0936Z" fill="#FEDD06"/>
<path fill-rule="evenodd" clip-rule="evenodd" d="M101.647 117.586C102.502 118.562 103.356 119.293 104.332 120.025C104.82 119.293 105.43 118.562 105.918 117.83C105.064 117.098 104.332 116.366 103.478 115.634C102.868 116.366 102.258 116.976 101.647 117.586Z" fill="#FEDD06"/>
<path fill-rule="evenodd" clip-rule="evenodd" d="M84.5638 131.247C89.0788 131.125 90.6651 131.613 93.4717 133.931C95.3021 132.101 94.936 129.174 94.2039 126.856C94.2039 126.612 93.4717 125.026 93.4717 124.904C92.8616 122.709 91.7634 121.733 89.4449 121.611C92.1294 126.124 90.055 126.978 88.2246 130.515C87.9806 130.515 86.3942 130.393 84.5638 131.247Z" fill="#E9C6B3"/>
<path fill-rule="evenodd" clip-rule="evenodd" d="M78.7065 134.175C78.5845 134.297 78.4624 134.297 78.4624 134.54L77.8523 135.638C77.7303 135.76 77.2422 136.736 76.9981 137.346C75.0457 142.347 78.0964 146.982 83.2214 144.177C89.8108 140.517 86.028 132.955 86.028 132.589C82.4893 132.467 81.025 132.345 78.7065 134.175Z" fill="#F9E8D8"/>
<path fill-rule="evenodd" clip-rule="evenodd" d="M80.0488 123.319L79.8047 125.27C78.0963 130.027 78.8285 126.734 81.269 131.979L84.5637 131.247C86.3941 130.271 87.9804 130.515 88.2245 130.515C90.0549 126.978 92.1293 126.124 89.4447 121.611C86.3941 120.635 81.8791 121.367 80.0488 123.319Z" fill="#F9E8D8"/>
<path fill-rule="evenodd" clip-rule="evenodd" d="M93.4716 133.931L94.8139 136.37L95.6681 136.126C96.4002 133.565 97.4984 131.125 96.6443 127.954C95.9121 125.27 94.3258 123.441 92.2513 122.953L92.9835 123.929C93.5936 124.782 93.1055 123.929 93.5936 124.904C93.5936 124.904 94.2038 126.612 94.3258 126.856C94.9359 129.174 95.18 132.101 93.4716 133.931Z" fill="#F9E8D8"/>
<path fill-rule="evenodd" clip-rule="evenodd" d="M88.4685 149.666C88.9566 149.422 88.7125 149.666 89.3227 149.178C94.8138 145.031 94.6918 134.662 87.8584 133.077C87.3703 134.541 94.2037 138.81 90.2989 146.494C89.5667 148.08 88.2244 148.934 88.4685 149.666Z" fill="#F9E8D8"/>
<path fill-rule="evenodd" clip-rule="evenodd" d="M100.671 112.463L102.135 113.682C104.21 112.097 106.65 108.194 107.016 104.656C107.504 100.387 104.942 95.7519 101.037 96.6057L100.793 96.7277C103.112 98.9233 107.138 100.265 103.234 109.047C102.379 110.877 102.379 111.365 100.671 112.463Z" fill="#F9E8D8"/>
<path fill-rule="evenodd" clip-rule="evenodd" d="M90.6651 99.2892C93.5937 95.142 108.359 91.6046 109.945 100.875C110.799 105.876 107.139 112.585 102.868 115.39C103.6 119.903 104.82 120.635 102.624 124.294C102.624 124.294 101.037 123.197 101.037 122.709C101.037 122.221 97.2545 114.292 97.2545 114.292C95.3021 113.926 93.3497 113.682 91.3973 113.317C89.3228 113.438 87.2484 113.56 85.174 113.682C85.174 113.682 85.1739 109.291 85.662 108.315C86.0281 107.34 90.6651 99.2892 90.6651 99.2892Z" fill="#141515"/>
<path fill-rule="evenodd" clip-rule="evenodd" d="M81.025 114.902C82.1233 115.634 81.5131 117.952 81.3911 118.196C81.2691 119.537 81.2691 119.781 82.4893 120.635H90.543C94.5699 119.049 94.9359 114.536 92.4954 111.365C97.7425 111.243 100.427 117.098 99.3289 121.733C99.2068 122.099 98.7187 123.685 98.4747 124.05C97.9866 125.148 98.2306 124.66 97.3765 125.88C97.6205 126.368 97.0104 127.832 99.0848 124.782C99.5729 124.172 100.183 123.075 100.549 122.099C101.403 120.025 101.403 117.342 100.549 115.512C98.7187 111.609 94.3258 110.267 89.2007 110.755C84.3197 111.121 82.3673 113.682 81.025 114.902Z" fill="#F9E8D8"/>
<path fill-rule="evenodd" clip-rule="evenodd" d="M88.9567 99.8991L86.5162 100.143C85.9061 101.851 83.5876 106.852 83.7096 112.097C81.3911 112.707 79.5608 115.146 78.4625 117.098L78.7066 116.976C79.5608 116.488 78.8286 117.22 79.9268 116L80.903 114.78C82.1233 113.682 84.3198 111.121 89.0788 110.511V110.023C87.4924 110.267 87.8585 110.267 86.6382 110.633C86.5162 110.633 86.3942 110.755 86.2722 110.755L84.6858 111.243C84.9299 109.291 84.9299 107.95 86.2722 106.364C86.5162 104.046 88.3466 100.997 90.055 99.6551C89.4448 100.265 90.177 99.8991 88.9567 99.8991Z" fill="#393537"/>
<path fill-rule="evenodd" clip-rule="evenodd" d="M96.5223 96.7277C97.7425 101.241 98.7187 101.241 94.4478 106.364C93.8377 107.096 93.4716 108.193 90.299 108.681C87.3704 109.169 87.6144 108.315 86.2721 106.486C86.1501 106.608 86.0281 106.608 86.0281 106.852C84.9298 108.803 85.0519 109.169 84.6858 111.487L86.2721 110.999C86.3941 110.999 86.5162 110.877 86.6382 110.877C87.8585 110.511 87.4924 110.511 89.0787 110.267C93.7157 109.291 97.3765 110.267 100.671 112.463C105.186 109.535 106.65 98.6793 100.183 96.3617C99.5729 96.2398 99.6949 96.1178 98.8408 96.1178C97.7425 96.1178 97.1324 96.3618 96.5223 96.7277Z" fill="#E9C6B3"/>
<path fill-rule="evenodd" clip-rule="evenodd" d="M90.543 120.513C90.665 120.635 90.787 120.513 90.909 120.757C94.4478 122.709 94.6918 123.685 97.3764 125.758C98.2306 124.538 97.9865 125.026 98.4746 123.928C98.5967 123.563 99.2068 121.977 99.3288 121.611C100.427 116.976 97.7425 111.121 92.4954 111.243C94.9359 114.536 94.5698 119.049 90.543 120.513Z" fill="#E9C6B3"/>
<path fill-rule="evenodd" clip-rule="evenodd" d="M77.6083 122.709L82.4893 120.513C81.269 119.659 81.269 119.415 81.3911 118.074C81.3911 117.83 82.1232 115.634 81.025 114.78C78.7065 117.708 77.7303 118.44 77.6083 122.709Z" fill="#E9C6B3"/>
<path fill-rule="evenodd" clip-rule="evenodd" d="M90.177 99.8991C88.3466 101.241 86.5162 104.29 86.3942 106.608C87.1263 108.803 87.8585 109.169 90.7871 108.681C94.2038 108.193 96.5223 105.754 97.4985 103.314C98.2306 101.241 97.9866 98.8013 96.6443 96.7277C92.9835 97.3375 92.1294 98.5573 90.177 99.8991Z" fill="#F9E8D8"/>
</svg>
