<svg width="139" height="14" viewBox="0 0 139 14" fill="none" xmlns="http://www.w3.org/2000/svg">
<path d="M90.6394 2.86721V0.354004H100.89V1.6294L94.4524 10.7461H101.043V13.4848H90.3135V11.9654L96.8665 2.86721H90.6394ZM113.728 13.4848L112.75 11.2335H105.872L104.895 13.4848H101.676L107.692 0.354004H110.949L116.966 13.4848H113.728ZM111.62 8.64514L109.321 3.31758L107.002 8.64514H111.62ZM121.353 13.4848H118.383V0.354004H121.353V13.4848ZM136.011 13.5033V4.36806L131.872 9.47017H131.336L127.331 4.33103V13.5033H124.342V0.372519H127.772L131.68 5.41854L135.609 0.372519H139V13.5033H136.011Z" fill="#333333"/>
<path d="M0 3.14437V0.467789H9.92217V3.14437C6.61478 3.14437 3.30739 3.14437 0 3.14437ZM24.1068 0.467789H20.9657L19.2364 2.7855L20.8072 4.89028L24.1068 0.467789ZM15.1703 8.23505L11.2249 13.5223H14.3654L19.2364 6.9956C17.6127 4.81948 15.9891 2.64336 14.3654 0.467789H11.2249L15.1069 5.67065H0V8.23505H15.1703ZM20.8072 9.09983L24.1068 13.5223H20.9657L19.2375 11.2035L20.8072 9.09983ZM87.766 2.02146L85.8926 3.63068C85.5355 3.26908 85.0738 2.99461 84.5065 2.80782C83.9397 2.61995 83.3695 2.52628 82.7955 2.52628C82.1202 2.52628 81.5528 2.65807 81.0939 2.91946C80.635 3.1814 80.4059 3.53156 80.4059 3.96831C80.4059 4.5167 80.6384 4.89409 81.1034 5.09994C81.569 5.30579 82.2982 5.45228 83.2928 5.53995C86.7214 5.82694 88.4352 7.24338 88.4352 9.78817C88.4352 10.7118 88.1609 11.5009 87.6131 12.1565C87.0646 12.8111 86.3771 13.2789 85.5489 13.5594C84.7201 13.8409 83.8028 13.9874 82.7955 13.9994C81.5723 14.0119 80.4248 13.7875 79.3546 13.3263C78.2844 12.8645 77.4812 12.1903 76.9461 11.3043L78.7238 9.4892C79.2077 10.1008 79.8257 10.562 80.5778 10.8741C81.3298 11.1861 82.0751 11.3418 82.8144 11.3418C83.6048 11.3418 84.2484 11.1986 84.7451 10.9116C85.2429 10.6246 85.491 10.2505 85.491 9.78817C85.5038 9.25177 85.2902 8.84334 84.8508 8.56288C84.4113 8.28188 83.7261 8.10381 82.7955 8.0292C81.9928 7.95405 81.3075 7.84786 80.7407 7.71062C80.1734 7.57394 79.6221 7.36155 79.087 7.07456C78.5514 6.78757 78.147 6.38513 77.8728 5.86779C77.5991 5.3499 77.4684 4.72255 77.4812 3.98628C77.4934 2.73866 78.0135 1.76279 79.0392 1.05756C80.0649 0.352339 81.3109 0 82.7766 0C83.8724 0 84.8124 0.149758 85.5961 0.449274C86.3799 0.748789 87.1035 1.27267 87.766 2.02146ZM75.2635 2.02146L73.39 3.63068C73.0329 3.26908 72.5707 2.99461 72.0039 2.80782C71.4371 2.61995 70.8664 2.52628 70.2935 2.52628C69.6176 2.52628 69.0503 2.65807 68.5919 2.91946C68.133 3.1814 67.9039 3.53156 67.9039 3.96831C67.9039 4.5167 68.1364 4.89409 68.6014 5.09994C69.0664 5.30579 69.7962 5.45228 70.7902 5.53995C74.2183 5.82694 75.9326 7.24338 75.9326 9.78817C75.9326 10.7118 75.6584 11.5009 75.111 12.1565C74.5626 12.8111 73.8745 13.2789 73.0457 13.5594C72.2175 13.8409 71.2997 13.9874 70.2935 13.9994C69.0692 14.0119 67.9228 13.7875 66.852 13.3263C65.7813 12.8645 64.9786 12.1903 64.443 11.3043L66.2213 9.4892C66.7057 10.1008 67.3237 10.562 68.0758 10.8741C68.8278 11.1861 69.5731 11.3418 70.3124 11.3418C71.1022 11.3418 71.7458 11.1986 72.2431 10.9116C72.7398 10.6246 72.989 10.2505 72.989 9.78817C73.0018 9.25177 72.7876 8.84334 72.3482 8.56288C71.9082 8.28188 71.2235 8.10381 70.2935 8.0292C69.4903 7.95405 68.8055 7.84786 68.2376 7.71062C67.6708 7.57394 67.1196 7.36155 66.5845 7.07456C66.0494 6.78757 65.6444 6.38513 65.3708 5.86779C65.0965 5.3499 64.9658 4.72255 64.9786 3.98628C64.9914 2.73866 65.5109 1.76279 66.5366 1.05756C67.5623 0.352339 68.8083 0 70.274 0C71.3703 0 72.3104 0.149758 73.0936 0.449274C73.8779 0.748789 74.6004 1.27267 75.2635 2.02146ZM63.1247 10.8741V13.5692H52.935V0.467789H62.8571V3.14437H55.8596V5.67065H62.4555V8.23505H55.8596V10.8741H63.1247ZM50.947 13.3442V13.5692H47.6396L44.2176 9.26429H42.0572V13.5692H39.0752V0.467789H45.4218C46.9643 0.467789 48.1747 0.898547 49.0541 1.75952C49.9335 2.61995 50.3735 3.66226 50.3735 4.88483C50.3607 5.85853 50.1376 6.68465 49.7043 7.36482C49.271 8.04499 48.4611 8.59066 47.2763 9.00235L50.947 13.3442ZM45.4218 2.97555H42.0572V6.79411H45.4602C46.0977 6.79411 46.5849 6.60677 46.9231 6.23265C47.2602 5.85853 47.4293 5.43376 47.4293 4.95944C47.4165 4.44808 47.2385 3.98955 46.8937 3.58439C46.5499 3.17868 46.0593 2.97555 45.4218 2.97555ZM28.6947 3.23804V7.18729H32.021C32.709 7.18729 33.238 6.99996 33.6079 6.62529C33.9772 6.25117 34.1625 5.78338 34.1625 5.22138C34.1625 4.65992 33.9739 4.18941 33.5979 3.80875C33.2224 3.42809 32.6968 3.23804 32.021 3.23804H28.6947ZM32.021 9.86333H28.6947V13.5692H25.7127V0.467789H32.021C33.6524 0.467789 34.914 0.917063 35.8062 1.81507C36.6984 2.71416 37.1445 3.83108 37.1445 5.16529C37.1445 6.53816 36.7017 7.66107 35.8162 8.53457C34.9301 9.40752 33.6646 9.8508 32.021 9.86333ZM9.92217 10.8741V13.5692H0V10.8741C3.30739 10.8741 6.61478 10.8741 9.92217 10.8741Z" fill="white"/>
</svg>
