<svg width="195" height="20" viewBox="0 0 195 20" fill="none" xmlns="http://www.w3.org/2000/svg">
<path d="M127.156 4.09604V0.505737H141.536V2.32773L132.505 15.3516H141.751V19.264H126.698V17.0935L135.891 4.09604H127.156ZM159.546 19.264L158.175 16.0479H148.525L147.154 19.264H142.638L151.078 0.505737H155.648L164.088 19.264H159.546ZM156.588 12.3502L153.363 4.73941L150.111 12.3502H156.588ZM170.243 19.264H166.077V0.505737H170.243V19.264ZM190.807 19.2904V6.2401L185 13.5288H184.248L178.629 6.1872V19.2904H174.437V0.532188H179.247L184.731 7.74079L190.242 0.532188H195V19.2904H190.807Z" fill="#333333"/>
<path d="M0 4.49196V0.66827H13.9196V4.49196C9.27973 4.49196 4.63987 4.49196 0 4.49196ZM33.8189 0.66827H29.4123L26.9863 3.97928L29.19 6.98611L33.8189 0.66827ZM21.282 11.7644L15.7471 19.3176H20.1529L26.9863 9.99371C24.7085 6.88497 22.4307 3.77623 20.1529 0.66827H15.7471L21.1931 8.10093H0V11.7644H21.282ZM29.19 12.9998L33.8189 19.3176H29.4123L26.9879 16.005L29.19 12.9998ZM123.125 2.8878L120.497 5.18668C119.996 4.67011 119.348 4.27802 118.552 4.01118C117.757 3.74278 116.957 3.60897 116.152 3.60897C115.205 3.60897 114.409 3.79724 113.765 4.17066C113.121 4.54486 112.8 5.04509 112.8 5.66902C112.8 6.45243 113.126 6.99155 113.778 7.28562C114.431 7.57969 115.454 7.78897 116.85 7.91422C121.66 8.3242 124.064 10.3477 124.064 13.9831C124.064 15.3025 123.679 16.4298 122.91 17.3665C122.141 18.3016 121.176 18.9699 120.015 19.3705C118.852 19.7727 117.565 19.982 116.152 19.9991C114.436 20.017 112.826 19.6965 111.325 19.0375C109.823 18.3778 108.697 17.4147 107.946 16.149L110.44 13.556C111.119 14.4297 111.986 15.0886 113.041 15.5344C114.096 15.9801 115.141 16.2026 116.178 16.2026C117.287 16.2026 118.19 15.998 118.887 15.588C119.585 15.1781 119.933 14.6436 119.933 13.9831C119.951 13.2168 119.652 12.6333 119.035 12.2327C118.419 11.8313 117.457 11.5769 116.152 11.4703C115.026 11.3629 114.065 11.2112 113.269 11.0152C112.473 10.8199 111.7 10.5165 110.949 10.1065C110.198 9.69653 109.631 9.12162 109.246 8.38255C108.862 7.64271 108.679 6.7465 108.697 5.69469C108.714 3.91238 109.443 2.51827 110.882 1.5108C112.321 0.503342 114.069 0 116.125 0C117.663 0 118.981 0.21394 120.081 0.641819C121.18 1.0697 122.196 1.8181 123.125 2.8878ZM105.585 2.8878L102.957 5.18668C102.456 4.67011 101.808 4.27802 101.013 4.01118C100.218 3.74278 99.4169 3.60897 98.6131 3.60897C97.665 3.60897 96.8691 3.79724 96.2261 4.17066C95.5823 4.54486 95.2608 5.04509 95.2608 5.66902C95.2608 6.45243 95.587 6.99155 96.2394 7.28562C96.8917 7.57969 97.9155 7.78897 99.31 7.91422C104.119 8.3242 106.524 10.3477 106.524 13.9831C106.524 15.3025 106.139 16.4298 105.372 17.3665C104.602 18.3016 103.637 18.9699 102.474 19.3705C101.312 19.7727 100.025 19.982 98.6131 19.9991C96.8956 20.017 95.2874 19.6965 93.7852 19.0375C92.2831 18.3778 91.1571 17.4147 90.4056 16.149L92.9003 13.556C93.58 14.4297 94.4469 15.0886 95.502 15.5344C96.557 15.9801 97.6026 16.2026 98.6397 16.2026C99.7477 16.2026 100.651 15.998 101.348 15.588C102.045 15.1781 102.395 14.6436 102.395 13.9831C102.413 13.2168 102.112 12.6333 101.496 12.2327C100.878 11.8313 99.9179 11.5769 98.6131 11.4703C97.4863 11.3629 96.5257 11.2112 95.729 11.0152C94.9339 10.8199 94.1606 10.5165 93.4099 10.1065C92.6592 9.69653 92.0911 9.12162 91.7072 8.38255C91.3225 7.64271 91.1391 6.7465 91.1571 5.69469C91.175 3.91238 91.9038 2.51827 93.3428 1.5108C94.7817 0.503342 96.5296 0 98.5858 0C100.124 0 101.443 0.21394 102.541 0.641819C103.642 1.0697 104.655 1.8181 105.585 2.8878ZM88.5562 15.5344V19.3845H74.2613V0.66827H88.1809V4.49196H78.3643V8.10093H87.6175V11.7644H78.3643V15.5344H88.5562ZM71.4723 19.0632V19.3845H66.8325L62.0319 13.2347H59.001V19.3845H54.8177V0.66827H63.7213C65.8852 0.66827 67.5832 1.28364 68.8169 2.5136C70.0506 3.74278 70.6678 5.2318 70.6678 6.97833C70.6499 8.36933 70.337 9.5495 69.7291 10.5212C69.1212 11.4928 67.985 12.2724 66.3229 12.8605L71.4723 19.0632ZM63.7213 4.25079H59.001V9.70587H63.7751C64.6694 9.70587 65.353 9.43825 65.8274 8.90379C66.3003 8.36933 66.5375 7.76252 66.5375 7.08491C66.5196 6.3544 66.2699 5.69936 65.7861 5.12055C65.3038 4.54097 64.6156 4.25079 63.7213 4.25079ZM40.2551 4.62577V10.2676H44.9215C45.8868 10.2676 46.6289 9.99994 47.1478 9.4647C47.6659 8.93024 47.9258 8.26197 47.9258 7.45911C47.9258 6.65703 47.6612 5.98487 47.1337 5.44107C46.607 4.89728 45.8696 4.62577 44.9215 4.62577H40.2551ZM44.9215 14.0905H40.2551V19.3845H36.0717V0.66827H44.9215C47.2102 0.66827 48.98 1.31009 50.2317 2.59295C51.4833 3.87737 52.1091 5.47297 52.1091 7.37898C52.1091 9.34022 51.488 10.9444 50.2457 12.1922C49.0026 13.4393 47.2274 14.0726 44.9215 14.0905ZM13.9196 15.5344V19.3845H0V15.5344C4.63987 15.5344 9.27973 15.5344 13.9196 15.5344Z" fill="white"/>
</svg>
