<svg width="48" height="48" viewBox="0 0 48 48" fill="none" xmlns="http://www.w3.org/2000/svg">
<path d="M24.0001 0.666626C11.1201 0.666626 0.666748 11.12 0.666748 24C0.666748 36.88 11.1201 47.3333 24.0001 47.3333C36.8801 47.3333 47.3334 36.88 47.3334 24C47.3334 11.12 36.8801 0.666626 24.0001 0.666626ZM17.6767 34.01L9.30008 25.6333C8.39008 24.7233 8.39008 23.2533 9.30008 22.3433C10.2101 21.4333 11.6801 21.4333 12.5901 22.3433L19.3334 29.0633L35.3867 13.01C36.2967 12.1 37.7668 12.1 38.6768 13.01C39.5868 13.92 39.5868 15.39 38.6768 16.3L20.9667 34.01C20.0801 34.92 18.5868 34.92 17.6767 34.01Z" fill="#2BDD7D"/>
</svg>
