<svg width="56" height="56" viewBox="0 0 56 56" fill="none" xmlns="http://www.w3.org/2000/svg">
<circle cx="28" cy="28" r="23" fill="#DD362B"/>
<path d="M29.4099 28.0002L33.7099 23.7102C33.8982 23.5219 34.004 23.2665 34.004 23.0002C34.004 22.7339 33.8982 22.4785 33.7099 22.2902C33.5216 22.1019 33.2662 21.9961 32.9999 21.9961C32.7336 21.9961 32.4782 22.1019 32.2899 22.2902L27.9999 26.5902L23.7099 22.2902C23.5216 22.1019 23.2662 21.9961 22.9999 21.9961C22.7336 21.9961 22.4782 22.1019 22.2899 22.2902C22.1016 22.4785 21.9958 22.7339 21.9958 23.0002C21.9958 23.2665 22.1016 23.5219 22.2899 23.7102L26.5899 28.0002L22.2899 32.2902C22.1962 32.3831 22.1218 32.4937 22.071 32.6156C22.0203 32.7375 21.9941 32.8682 21.9941 33.0002C21.9941 33.1322 22.0203 33.2629 22.071 33.3848C22.1218 33.5066 22.1962 33.6172 22.2899 33.7102C22.3829 33.8039 22.4935 33.8783 22.6154 33.9291C22.7372 33.9798 22.8679 34.006 22.9999 34.006C23.132 34.006 23.2627 33.9798 23.3845 33.9291C23.5064 33.8783 23.617 33.8039 23.7099 33.7102L27.9999 29.4102L32.2899 33.7102C32.3829 33.8039 32.4935 33.8783 32.6154 33.9291C32.7372 33.9798 32.8679 34.006 32.9999 34.006C33.132 34.006 33.2627 33.9798 33.3845 33.9291C33.5064 33.8783 33.617 33.8039 33.7099 33.7102C33.8037 33.6172 33.8781 33.5066 33.9288 33.3848C33.9796 33.2629 34.0057 33.1322 34.0057 33.0002C34.0057 32.8682 33.9796 32.7375 33.9288 32.6156C33.8781 32.4937 33.8037 32.3831 33.7099 32.2902L29.4099 28.0002Z" fill="white"/>
</svg>
