<svg width="191" height="20" viewBox="0 0 191 20" fill="none" xmlns="http://www.w3.org/2000/svg">
<path d="M124.548 4.09591V0.505615H138.633V2.3276L129.787 15.3515H138.843V19.2639H124.1V17.0933L133.104 4.09591H124.548ZM156.273 19.2639L154.93 16.0478H145.479L144.136 19.2639H139.713L147.979 0.505615H152.455L160.722 19.2639H156.273ZM153.376 12.3501L150.217 4.73929L147.032 12.3501H153.376ZM166.751 19.2639H162.671V0.505615H166.751V19.2639ZM186.893 19.2903V6.23998L181.206 13.5287H180.469L174.966 6.18708V19.2903H170.859V0.532066H175.571L180.942 7.74067L186.34 0.532066H191V19.2903H186.893Z" fill="#FEFEFE"/>
<path d="M0 4.49196V0.66827H13.6341V4.49196C9.08938 4.49196 4.54469 4.49196 0 4.49196ZM33.1252 0.66827H28.809L26.4327 3.97928L28.5912 6.98611L33.1252 0.66827ZM20.8455 11.7644L15.4241 19.3176H19.7395L26.4327 9.99371C24.2017 6.88497 21.9706 3.77623 19.7395 0.66827H15.4241L20.7584 8.10093H0V11.7644H20.8455ZM28.5912 12.9998L33.1252 19.3176H28.809L26.4343 16.005L28.5912 12.9998ZM120.599 2.8878L118.025 5.18668C117.534 4.67011 116.9 4.27802 116.12 4.01118C115.342 3.74278 114.558 3.60897 113.769 3.60897C112.841 3.60897 112.062 3.79724 111.431 4.17066C110.801 4.54486 110.486 5.04509 110.486 5.66902C110.486 6.45243 110.805 6.99155 111.444 7.28562C112.084 7.57969 113.086 7.78897 114.453 7.91422C119.164 8.3242 121.519 10.3477 121.519 13.9831C121.519 15.3025 121.142 16.4298 120.389 17.3665C119.636 18.3016 118.691 18.9699 117.553 19.3705C116.414 19.7727 115.154 19.982 113.769 19.9991C112.089 20.017 110.512 19.6965 109.041 19.0375C107.571 18.3778 106.467 17.4147 105.732 16.149L108.174 13.556C108.839 14.4297 109.689 15.0886 110.722 15.5344C111.755 15.9801 112.78 16.2026 113.795 16.2026C114.881 16.2026 115.766 15.998 116.448 15.588C117.132 15.1781 117.473 14.6436 117.473 13.9831C117.491 13.2168 117.197 12.6333 116.594 12.2327C115.99 11.8313 115.048 11.5769 113.769 11.4703C112.666 11.3629 111.725 11.2112 110.946 11.0152C110.166 10.8199 109.409 10.5165 108.674 10.1065C107.938 9.69653 107.382 9.12162 107.005 8.38255C106.629 7.64271 106.449 6.7465 106.467 5.69469C106.484 3.91238 107.198 2.51827 108.608 1.5108C110.017 0.503342 111.729 0 113.743 0C115.249 0 116.541 0.21394 117.618 0.641819C118.695 1.0697 119.689 1.8181 120.599 2.8878ZM103.42 2.8878L100.845 5.18668C100.355 4.67011 99.7195 4.27802 98.9406 4.01118C98.1618 3.74278 97.3776 3.60897 96.5903 3.60897C95.6617 3.60897 94.882 3.79724 94.2522 4.17066C93.6217 4.54486 93.3068 5.04509 93.3068 5.66902C93.3068 6.45243 93.6263 6.99155 94.2652 7.28562C94.9042 7.57969 95.907 7.78897 97.2729 7.91422C101.983 8.3242 104.339 10.3477 104.339 13.9831C104.339 15.3025 103.962 16.4298 103.21 17.3665C102.457 18.3016 101.511 18.9699 100.372 19.3705C99.2341 19.7727 97.973 19.982 96.5903 19.9991C94.908 20.017 93.3327 19.6965 91.8614 19.0375C90.3901 18.3778 89.2872 17.4147 88.5511 16.149L90.9947 13.556C91.6604 14.4297 92.5096 15.0886 93.5429 15.5344C94.5763 15.9801 95.6005 16.2026 96.6163 16.2026C97.7016 16.2026 98.586 15.998 99.2693 15.588C99.9518 15.1781 100.294 14.6436 100.294 13.9831C100.312 13.2168 100.018 12.6333 99.4137 12.2327C98.8092 11.8313 97.8683 11.5769 96.5903 11.4703C95.4866 11.3629 94.5457 11.2112 93.7654 11.0152C92.9865 10.8199 92.2291 10.5165 91.4938 10.1065C90.7585 9.69653 90.2021 9.12162 89.826 8.38255C89.4492 7.64271 89.2696 6.7465 89.2872 5.69469C89.3047 3.91238 90.0186 2.51827 91.428 1.5108C92.8375 0.503342 94.5496 0 96.5636 0C98.07 0 99.3618 0.21394 100.438 0.641819C101.516 1.0697 102.508 1.8181 103.42 2.8878ZM86.7397 15.5344V19.3845H72.738V0.66827H86.372V4.49196H76.7568V8.10093H85.8202V11.7644H76.7568V15.5344H86.7397ZM70.0062 19.0632V19.3845H65.4616L60.7594 13.2347H57.7908V19.3845H53.6932V0.66827H62.4142C64.5337 0.66827 66.1968 1.28364 67.4052 2.5136C68.6136 3.74278 69.2182 5.2318 69.2182 6.97833C69.2006 8.36933 68.8942 9.5495 68.2987 10.5212C67.7033 11.4928 66.5905 12.2724 64.9625 12.8605L70.0062 19.0632ZM62.4142 4.25079H57.7908V9.70587H62.4669C63.3428 9.70587 64.0124 9.43825 64.4771 8.90379C64.9403 8.36933 65.1726 7.76252 65.1726 7.08491C65.1551 6.3544 64.9105 5.69936 64.4366 5.12055C63.9642 4.54097 63.2901 4.25079 62.4142 4.25079ZM39.4293 4.62577V10.2676H44C44.9455 10.2676 45.6724 9.99994 46.1806 9.4647C46.6882 8.93024 46.9427 8.26197 46.9427 7.45911C46.9427 6.65703 46.6836 5.98487 46.1669 5.44107C45.651 4.89728 44.9287 4.62577 44 4.62577H39.4293ZM44 14.0905H39.4293V19.3845H35.3318V0.66827H44C46.2418 0.66827 47.9753 1.31009 49.2013 2.59295C50.4272 3.87737 51.0402 5.47297 51.0402 7.37898C51.0402 9.34022 50.4318 10.9444 49.215 12.1922C47.9975 13.4393 46.2586 14.0726 44 14.0905ZM13.6341 15.5344V19.3845H0V15.5344C4.54469 15.5344 9.08938 15.5344 13.6341 15.5344Z" fill="#00A0E3"/>
</svg>
