<svg xmlns="http://www.w3.org/2000/svg" width="50" height="50" viewBox="0 0 58 58">
    <defs>
        <style>.cls-1{fill:#507cff;}.cls-2{mask:url(#mask);}.cls-3{fill:none;}.cls-4{fill:#199ed9;}.cls-5{fill:#fff;}
        </style>
        <mask id="mask" x="0" y="0.02" width="58" height="58" maskUnits="userSpaceOnUse">
            <g transform="translate(0 0.02)">
                <g id="mask0">
                    <circle class="cls-1" cx="29" cy="29" r="29"/>
                </g>
            </g>
        </mask>
    </defs>
    <g class="cls-2">
        <rect class="cls-3" x="13" y="12.02" width="32" height="34"/>
    </g>
    <circle class="cls-4" cx="29" cy="29" r="29"/>
    <rect class="cls-5" x="8.85" y="26.74" width="29.04" height="4.52"/>
    <rect class="cls-5" x="8.85" y="36.2" width="16.31" height="4.52"/>
    <rect class="cls-5" x="8.85" y="17.28" width="16.31" height="4.52"/>
    <polygon class="cls-5" points="26.32 17.38 33.47 26.74 40.41 29.05 32.31 17.38 26.32 17.38"/>
    <polygon class="cls-5" points="49.15 17.38 42.84 25.58 39.99 21.8 43.15 17.38 49.15 17.38"/>
    <polygon class="cls-5" points="49.15 40.72 42.84 32.52 39.99 36.31 43.15 40.72 49.15 40.72"/>
    <polygon class="cls-5" points="26.32 40.72 37.89 25.58 40.41 29.05 32.31 40.72 26.32 40.72"/>
</svg>
