<svg width="24" height="24" viewBox="0 0 24 24" fill="none" xmlns="http://www.w3.org/2000/svg">
<path d="M20.9995 4.00001C20.9891 3.90814 20.9689 3.81764 20.9395 3.73001V3.64001C20.8915 3.52872 20.8238 3.42706 20.7395 3.34001C20.6546 3.26027 20.5565 3.19597 20.4495 3.15001H20.3595C20.2673 3.07962 20.1619 3.02859 20.0495 3.00001H19.9995C19.9 2.98492 19.7989 2.98492 19.6995 3.00001L1.69947 9.00001C1.4994 9.06577 1.3252 9.19301 1.2017 9.3636C1.07821 9.53419 1.01172 9.73941 1.01172 9.95001C1.01172 10.1606 1.07821 10.3658 1.2017 10.5364C1.3252 10.707 1.4994 10.8342 1.69947 10.9L10.2295 13.74L13.0695 22.27C13.1352 22.4701 13.2625 22.6443 13.4331 22.7678C13.6036 22.8913 13.8089 22.9578 14.0195 22.9578C14.2301 22.9578 14.4353 22.8913 14.6059 22.7678C14.7765 22.6443 14.9037 22.4701 14.9695 22.27L20.9695 4.27001C20.9917 4.18179 21.0018 4.09095 20.9995 4.00001ZM16.2995 6.29001L10.7295 11.86L5.15947 10L16.2995 6.29001ZM13.9995 18.84L12.1395 13.27L17.7095 7.70001L13.9995 18.84Z" fill="#507CFF"/>
</svg>
