<svg width="40" height="46" viewBox="0 0 40 46" fill="none" xmlns="http://www.w3.org/2000/svg">
<path d="M19.8135 30.8587C19.8135 36.407 24.3274 40.9209 29.8757 40.9209C35.424 40.9209 39.9379 36.407 39.9379 30.8587C39.9379 27.2416 38.0192 24.0647 35.1464 22.2908V9.68009C35.1464 9.42998 35.026 9.20851 34.8407 9.0685C25.3154 -0.456786 25.9317 0.08073 25.6058 0.0161401C25.4918 -0.00647596 26.695 0.0011905 3.12713 0.0011905C1.4362 0.0011905 0.0605469 1.37684 0.0605469 3.06777V42.9334C0.0605469 44.6243 1.4362 45.9999 3.12713 45.9999H32.068C33.7589 45.9999 35.1346 44.6243 35.1346 42.9334C35.1346 42.51 34.7913 42.1667 34.368 42.1667C33.9446 42.1667 33.6013 42.51 33.6013 42.9334C33.6013 43.7788 32.9134 44.4667 32.068 44.4667H3.12713C2.28171 44.4667 1.59384 43.7788 1.59384 42.9334V3.06777C1.59384 2.22236 2.28171 1.53448 3.12713 1.53448H24.689V7.38016C24.689 9.07109 26.0647 10.4467 27.7556 10.4467H33.6131V21.5166C32.3632 21.0149 31.0051 20.7613 29.5882 20.8009V15.3342C29.5882 14.0661 28.5564 13.0343 27.2883 13.0343H7.93046C6.66223 13.0343 5.63052 14.0661 5.63052 15.3342V25.1089C5.63052 26.3771 6.66223 27.4089 7.93046 27.4089H17.9927C18.4161 27.4089 18.7593 27.0656 18.7593 26.6422C18.7593 26.2189 18.4161 25.8756 17.9927 25.8756H14.5428V20.9882H21.4426C21.866 20.9882 22.2092 20.645 22.2092 20.2216V14.5676H27.2883C27.711 14.5676 28.0549 14.9115 28.0549 15.3342V20.9621C23.3728 21.8213 19.8135 25.9319 19.8135 30.8587ZM27.7556 8.91345C26.9102 8.91345 26.2223 8.22558 26.2223 7.38016V2.61871L32.5172 8.91354H27.7556V8.91345ZM7.93046 14.5675H13.0095V19.4548H7.16381V15.3341C7.16381 14.9114 7.50775 14.5675 7.93046 14.5675ZM13.0095 25.8755H7.93046C7.50775 25.8755 7.16381 25.5316 7.16381 25.1088V20.9881H13.0095V25.8755ZM20.6759 19.4548H14.5428V14.5675H20.6759V19.4548ZM38.4046 30.8587C38.4046 35.5616 34.5786 39.3876 29.8757 39.3876C25.1728 39.3876 21.3468 35.5616 21.3468 30.8587C21.3468 26.1558 25.1728 22.3298 29.8757 22.3298C34.5786 22.3298 38.4046 26.1558 38.4046 30.8587ZM5.63052 31.6253C5.63052 31.202 5.97378 30.8587 6.39716 30.8587H13.872C14.2953 30.8587 14.6386 31.202 14.6386 31.6253C14.6386 32.0487 14.2953 32.392 13.872 32.392H6.39716C5.97378 32.392 5.63052 32.0487 5.63052 31.6253ZM5.63052 37.3752C5.63052 36.9518 5.97378 36.6085 6.39716 36.6085H15.7886C16.212 36.6085 16.5552 36.9518 16.5552 37.3752C16.5552 37.7986 16.212 38.1418 15.7886 38.1418H6.39716C5.97378 38.1418 5.63052 37.7986 5.63052 37.3752Z" fill="#507CFF"/>
</svg>
