<svg width="32" height="32" viewBox="0 0 32 32" fill="none" xmlns="http://www.w3.org/2000/svg">
<path d="M0 16C0 7.16344 7.16344 0 16 0C24.8366 0 32 7.16344 32 16C32 24.8366 24.8366 32 16 32C7.16344 32 0 24.8366 0 16Z" fill="white"/>
<path d="M0.5 16C0.5 7.43959 7.43959 0.5 16 0.5C24.5604 0.5 31.5 7.43959 31.5 16C31.5 24.5604 24.5604 31.5 16 31.5C7.43959 31.5 0.5 24.5604 0.5 16Z" stroke="black" stroke-opacity="0.25"/>
<path d="M12.2144 20.832C13.5691 19.744 14.6304 18.8533 15.3984 18.16C16.1664 17.456 16.8118 16.7253 17.3344 15.968C17.8678 15.2 18.1344 14.448 18.1344 13.712C18.1344 13.0187 17.9638 12.4747 17.6224 12.08C17.2918 11.6747 16.7531 11.472 16.0064 11.472C15.2811 11.472 14.7158 11.7013 14.3104 12.16C13.9158 12.608 13.7024 13.2107 13.6704 13.968H12.2624C12.3051 12.7733 12.6678 11.8507 13.3504 11.2C14.0331 10.5493 14.9131 10.224 15.9904 10.224C17.0891 10.224 17.9584 10.528 18.5984 11.136C19.2491 11.744 19.5744 12.5813 19.5744 13.648C19.5744 14.5333 19.3078 15.3973 18.7744 16.24C18.2518 17.072 17.6544 17.808 16.9824 18.448C16.3104 19.0773 15.4518 19.8133 14.4064 20.656H19.9104V21.872H12.2144V20.832Z" fill="black" fill-opacity="0.25"/>
</svg>
