<svg width="32" height="32" viewBox="0 0 32 32" fill="none" xmlns="http://www.w3.org/2000/svg">
<path d="M0.5 16C0.5 7.43959 7.43959 0.5 16 0.5C24.5604 0.5 31.5 7.43959 31.5 16C31.5 24.5604 24.5604 31.5 16 31.5C7.43959 31.5 0.5 24.5604 0.5 16Z" fill="#507CFF" stroke="#507CFF"/>
<path d="M12.1329 20.88C13.9463 19.664 15.3969 18.4587 16.4849 17.264C17.5729 16.0587 18.1169 14.9387 18.1169 13.904C18.1169 13.264 17.9516 12.752 17.6209 12.368C17.3009 11.9733 16.7783 11.776 16.0529 11.776C15.3063 11.776 14.7409 12.016 14.3569 12.496C13.9729 12.9653 13.7596 13.616 13.7169 14.448H12.2769C12.3516 13.1893 12.7409 12.224 13.4449 11.552C14.1489 10.8693 15.0556 10.528 16.1649 10.528C17.2209 10.528 18.0583 10.8107 18.6769 11.376C19.2956 11.9413 19.6049 12.7413 19.6049 13.776C19.6049 14.6293 19.3276 15.4987 18.7729 16.384C18.2289 17.2587 17.5409 18.0747 16.7089 18.832C15.8876 19.5787 15.0396 20.2133 14.1649 20.736H19.8929V21.936H12.1329V20.88Z" fill="white"/>
</svg>
