<svg width="32" height="32" viewBox="0 0 32 32" fill="none" xmlns="http://www.w3.org/2000/svg">
<path d="M0.5 16C0.5 7.43959 7.43959 0.5 16 0.5C24.5604 0.5 31.5 7.43959 31.5 16C31.5 24.5604 24.5604 31.5 16 31.5C7.43959 31.5 0.5 24.5604 0.5 16Z" fill="#507CFF" stroke="#507CFF"/>
<path d="M16.0731 10.416C16.7984 10.416 17.4224 10.544 17.9451 10.8C18.4677 11.056 18.8624 11.408 19.1291 11.856C19.3957 12.304 19.5291 12.8107 19.5291 13.376C19.5291 14.08 19.3211 14.672 18.9051 15.152C18.4997 15.632 17.9024 15.92 17.1131 16.016V16.112C17.9344 16.3253 18.5744 16.656 19.0331 17.104C19.5024 17.552 19.7371 18.1707 19.7371 18.96C19.7371 19.888 19.4277 20.6453 18.8091 21.232C18.1904 21.8187 17.2997 22.112 16.1371 22.112C14.9744 22.112 14.0304 21.8133 13.3051 21.216C12.5904 20.608 12.1691 19.7227 12.0411 18.56H13.4811C13.5771 19.264 13.8437 19.824 14.2811 20.24C14.7291 20.656 15.3317 20.864 16.0891 20.864C16.8037 20.864 17.3531 20.6827 17.7371 20.32C18.1211 19.9467 18.3131 19.4667 18.3131 18.88C18.3131 18.176 18.0357 17.6427 17.4811 17.28C16.9371 16.9067 16.1584 16.72 15.1451 16.72H14.7611V15.504H15.1451C17.1077 15.504 18.0891 14.848 18.0891 13.536C18.0891 12.96 17.9077 12.5013 17.5451 12.16C17.1824 11.8187 16.6811 11.648 16.0411 11.648C15.4011 11.648 14.8624 11.8347 14.4251 12.208C13.9877 12.5707 13.7317 13.1093 13.6571 13.824H12.2331C12.3077 12.7573 12.6757 11.9253 13.3371 11.328C14.0091 10.72 14.9211 10.416 16.0731 10.416Z" fill="white"/>
</svg>
