<svg width="46" height="46" viewBox="0 0 46 46" fill="none" xmlns="http://www.w3.org/2000/svg">
<path d="M43.4125 22.7022V13.5604C43.4125 11.4467 41.6929 9.72708 39.5792 9.72708H38.2799L38.5678 8.72648C39.0368 7.0978 38.0982 5.40011 36.4693 4.9311L27.7704 2.42698C27.3634 2.30987 26.9387 2.54475 26.8216 2.95166C26.7044 3.35857 26.9394 3.7833 27.3463 3.90051L32.815 5.47476C32.1385 6.79266 32.1137 8.36462 32.798 9.72708H16.7708V3.68958C16.7708 3.26619 16.4276 2.92291 16.0042 2.92291C15.5808 2.92291 15.2375 3.26619 15.2375 3.68958V9.72708H12.65V3.68958C12.65 3.26619 12.3067 2.92291 11.8833 2.92291C11.4599 2.92291 11.1167 3.26619 11.1167 3.68958V9.72708H7.7625V3.11458C7.7625 2.26914 8.45039 1.58125 9.29583 1.58125H22.2333C23.0788 1.58125 23.7667 2.26914 23.7667 3.11458V7.33125C23.7667 7.75464 24.1099 8.09791 24.5333 8.09791C24.9567 8.09791 25.3 7.75464 25.3 7.33125V3.11458C25.3 1.4236 23.9243 0.0479126 22.2333 0.0479126H9.29583C7.60485 0.0479126 6.22917 1.4236 6.22917 3.11458V9.72708H3.83333C1.71963 9.72708 0 11.4467 0 13.5604V42.1187C0 44.2324 1.71963 45.9521 3.83333 45.9521H39.5792C41.6929 45.9521 43.4125 44.2324 43.4125 42.1187V36.5125C43.4125 36.0891 43.0692 35.7458 42.6458 35.7458C42.2224 35.7458 41.8792 36.0891 41.8792 36.5125V42.1187C41.8792 43.3869 40.8473 44.4187 39.5792 44.4187H3.83333C2.56517 44.4187 1.53333 43.3869 1.53333 42.1187V13.5604C1.53333 12.2922 2.56517 11.2604 3.83333 11.2604H39.5792C40.8473 11.2604 41.8792 12.2922 41.8792 13.5604V22.6646H35.5542C33.8632 22.6646 32.4875 24.0403 32.4875 25.7312V29.9479C32.4875 31.6389 33.8632 33.0146 35.5542 33.0146H42.9353C44.6189 33.0146 46 31.6435 46 29.9479V25.7312C46 24.2033 44.8766 22.933 43.4125 22.7022ZM34.3304 5.91109L36.0451 6.40473C36.8596 6.63923 37.3287 7.48793 37.0944 8.30233L36.6842 9.72708H34.6349C33.6668 8.6503 33.5771 7.08438 34.3304 5.91109ZM44.4667 29.9479C44.4667 30.7934 43.7788 31.4812 42.9333 31.4812H35.5542C34.7087 31.4812 34.0208 30.7934 34.0208 29.9479V25.7312C34.0208 24.8858 34.7087 24.1979 35.5542 24.1979H42.9333C43.7788 24.1979 44.4667 24.8858 44.4667 25.7312V29.9479ZM38.4292 27.8396C38.4292 28.263 38.0859 28.6062 37.6625 28.6062H36.5125C36.0891 28.6062 35.7458 28.263 35.7458 27.8396C35.7458 27.4162 36.0891 27.0729 36.5125 27.0729H37.6625C38.0859 27.0729 38.4292 27.4162 38.4292 27.8396Z" fill="#507CFF"/>
</svg>
