<svg width="46" height="34" viewBox="0 0 46 34" fill="none" xmlns="http://www.w3.org/2000/svg">
<path d="M42.1667 0.0374756H3.83333C1.71542 0.0374756 0 1.75289 0 3.87081V14.2208C0 14.6425 0.345 14.9875 0.766667 14.9875H40.825C41.2467 14.9875 41.5917 14.6425 41.5917 14.2208C41.5917 13.7991 41.2467 13.4541 40.825 13.4541H1.53333V8.47081H40.825C41.2467 8.47081 41.5917 8.12581 41.5917 7.70414C41.5917 7.28247 41.2467 6.93747 40.825 6.93747H1.53333V3.87081C1.53333 2.60581 2.56833 1.57081 3.83333 1.57081H42.1667C43.4317 1.57081 44.4667 2.60581 44.4667 3.87081V30.1291C44.4667 31.3941 43.4317 32.4291 42.1667 32.4291H3.83333C2.56833 32.4291 1.53333 31.3941 1.53333 30.1291V18.6291C1.53333 18.2075 1.18833 17.8625 0.766667 17.8625C0.345 17.8625 0 18.2075 0 18.6291V30.1291C0 32.2471 1.71542 33.9625 3.83333 33.9625H42.1667C44.2846 33.9625 46 32.2471 46 30.1291V3.87081C46 1.75289 44.2846 0.0374756 42.1667 0.0374756ZM6.99583 22.175H13.4167C13.8383 22.175 14.1833 21.83 14.1833 21.4083C14.1833 20.9866 13.8383 20.6416 13.4167 20.6416H6.99583C6.57417 20.6416 6.22917 20.9866 6.22917 21.4083C6.22917 21.83 6.57417 22.175 6.99583 22.175ZM6.99583 26.9666H13.4167C13.8383 26.9666 14.1833 26.6216 14.1833 26.2C14.1833 25.7783 13.8383 25.4333 13.4167 25.4333H6.99583C6.57417 25.4333 6.22917 25.7783 6.22917 26.2C6.22917 26.6216 6.57417 26.9666 6.99583 26.9666Z" fill="#507CFF"/>
</svg>
